<svg width="23" height="23" viewBox="0 0 23 23" fill="none" xmlns="http://www.w3.org/2000/svg">
<path d="M11.8563 3.51379L12.7137 3.56194L13.5603 3.70578L14.3854 3.9435L15.1788 4.27212L15.9303 4.6875L16.6307 5.18441L17.271 5.75661L17.8432 6.3969L18.3401 7.09724L18.7554 7.84881L19.0841 8.64215L19.3218 9.46731L19.4656 10.3139L19.5138 11.1713L19.4656 12.0286L19.3218 12.8752L19.0841 13.7003L18.7554 14.4937L18.3401 15.2453L17.8432 15.9456L17.271 16.5859L16.6307 17.1581L15.9303 17.655L15.1788 18.0704L14.3854 18.399L13.5603 18.6367L12.7137 18.7806L11.8563 18.8287L10.9989 18.7806L10.1524 18.6367L9.32721 18.399L8.53386 18.0704L7.7823 17.655L7.08196 17.1581L6.44167 16.5859L5.86947 15.9456L5.37256 15.2453L4.95718 14.4937L4.62856 13.7003L4.39084 12.8752L4.247 12.0286L4.19885 11.1713L4.247 10.3139L4.39084 9.46731L4.62856 8.64215L4.95718 7.84881L5.37256 7.09724L5.86947 6.3969L6.44167 5.75661L7.08196 5.18441L7.7823 4.6875L8.53386 4.27212L9.32721 3.9435L10.1524 3.70578L10.9989 3.56194L11.8563 3.51379Z" fill="#C2CCDE" fill-opacity="0.25"/>
<path d="M11.8563 3.51379L11.9074 2.60363C11.8734 2.60171 11.8392 2.60171 11.8052 2.60363L11.8563 3.51379ZM12.7137 3.56194L12.8664 2.66322C12.8328 2.65751 12.7988 2.65369 12.7648 2.65177L12.7137 3.56194ZM13.5603 3.70578L13.8126 2.82981C13.7798 2.82037 13.7466 2.81277 13.713 2.80706L13.5603 3.70578ZM14.3854 3.9435L14.7343 3.10129C14.7028 3.08824 14.6705 3.07697 14.6378 3.06753L14.3854 3.9435ZM15.1788 4.27212L15.6197 3.47427C15.5899 3.45777 15.5591 3.44296 15.5276 3.42991L15.1788 4.27212ZM15.9303 4.6875L16.4578 3.94403C16.43 3.9243 16.4011 3.90614 16.3713 3.88964L15.9303 4.6875ZM16.6307 5.18441L17.2381 4.50468C17.2127 4.48196 17.186 4.46068 17.1582 4.44094L16.6307 5.18441ZM17.271 5.75661L17.9507 5.14917C17.928 5.12374 17.9038 5.09961 17.8784 5.07688L17.271 5.75661ZM17.8432 6.3969L18.5866 5.86939C18.5669 5.84157 18.5456 5.81489 18.5229 5.78946L17.8432 6.3969ZM18.3401 7.09724L19.1379 6.65628C19.1214 6.62643 19.1033 6.59753 19.0835 6.56972L18.3401 7.09724ZM18.7554 7.84881L19.5977 7.49995C19.5846 7.46844 19.5698 7.43769 19.5533 7.40785L18.7554 7.84881ZM19.0841 8.64215L19.96 8.38979C19.9506 8.35702 19.9393 8.32481 19.9263 8.2933L19.0841 8.64215ZM19.3218 9.46731L20.2205 9.31461C20.2148 9.28099 20.2072 9.24771 20.1978 9.21494L19.3218 9.46731ZM19.4656 10.3139L20.3758 10.2628C20.3739 10.2287 20.3701 10.1948 20.3643 10.1612L19.4656 10.3139ZM19.5138 11.1713L20.4239 11.2224C20.4258 11.1883 20.4258 11.1542 20.4239 11.1201L19.5138 11.1713ZM19.4656 12.0286L20.3643 12.1813C20.3701 12.1477 20.3739 12.1138 20.3758 12.0797L19.4656 12.0286ZM19.3218 12.8752L20.1978 13.1276C20.2072 13.0948 20.2148 13.0615 20.2205 13.0279L19.3218 12.8752ZM19.0841 13.7003L19.9263 14.0492C19.9393 14.0177 19.9506 13.9855 19.96 13.9527L19.0841 13.7003ZM18.7554 14.4937L19.5533 14.9347C19.5698 14.9048 19.5846 14.8741 19.5977 14.8426L18.7554 14.4937ZM18.3401 15.2453L19.0835 15.7728C19.1033 15.745 19.1214 15.7161 19.1379 15.6862L18.3401 15.2453ZM17.8432 15.9456L18.5229 16.553C18.5456 16.5276 18.5669 16.5009 18.5866 16.4731L17.8432 15.9456ZM17.271 16.5859L17.8784 17.2656C17.9038 17.2429 17.928 17.2188 17.9507 17.1933L17.271 16.5859ZM16.6307 17.1581L17.1582 17.9016C17.186 17.8818 17.2127 17.8605 17.2381 17.8378L16.6307 17.1581ZM15.9303 17.655L16.3713 18.4529C16.4011 18.4364 16.43 18.4182 16.4578 18.3985L15.9303 17.655ZM15.1788 18.0704L15.5276 18.9126C15.5591 18.8995 15.5899 18.8847 15.6197 18.8682L15.1788 18.0704ZM14.3854 18.399L14.6378 19.275C14.6705 19.2655 14.7028 19.2543 14.7343 19.2412L14.3854 18.399ZM13.5603 18.6367L13.713 19.5354C13.7466 19.5297 13.7798 19.5221 13.8126 19.5127L13.5603 18.6367ZM12.7137 18.7806L12.7648 19.6907C12.7988 19.6888 12.8328 19.685 12.8664 19.6793L12.7137 18.7806ZM11.8563 18.8287L11.8052 19.7389C11.8392 19.7408 11.8734 19.7408 11.9074 19.7389L11.8563 18.8287ZM10.9989 18.7806L10.8462 19.6793C10.8799 19.685 10.9138 19.6888 10.9478 19.6907L10.9989 18.7806ZM10.1524 18.6367L9.9 19.5127C9.93277 19.5221 9.96605 19.5297 9.99967 19.5354L10.1524 18.6367ZM9.32721 18.399L8.97836 19.2412C9.00986 19.2543 9.04208 19.2655 9.07485 19.275L9.32721 18.399ZM8.53386 18.0704L8.0929 18.8682C8.12275 18.8847 8.1535 18.8995 8.18501 18.9126L8.53386 18.0704ZM7.7823 17.655L7.25478 18.3985C7.28259 18.4182 7.31149 18.4364 7.34134 18.4529L7.7823 17.655ZM7.08196 17.1581L6.47452 17.8378C6.49995 17.8605 6.52663 17.8818 6.55445 17.9016L7.08196 17.1581ZM6.44167 16.5859L5.76194 17.1933C5.78467 17.2188 5.8088 17.2429 5.83423 17.2656L6.44167 16.5859ZM5.86947 15.9456L5.126 16.4731C5.14574 16.5009 5.16702 16.5276 5.18974 16.553L5.86947 15.9456ZM5.37256 15.2453L4.5747 15.6862C4.5912 15.7161 4.60935 15.745 4.62909 15.7728L5.37256 15.2453ZM4.95718 14.4937L4.11497 14.8426C4.12802 14.8741 4.14283 14.9048 4.15932 14.9347L4.95718 14.4937ZM4.62856 13.7003L3.75259 13.9527C3.76203 13.9855 3.7733 14.0177 3.78635 14.0492L4.62856 13.7003ZM4.39084 12.8752L3.49212 13.0279C3.49783 13.0615 3.50543 13.0948 3.51487 13.1276L4.39084 12.8752ZM4.247 12.0286L3.33683 12.0797C3.33875 12.1138 3.34257 12.1477 3.34828 12.1813L4.247 12.0286ZM4.19885 11.1713L3.28868 11.1201C3.28677 11.1542 3.28677 11.1883 3.28868 11.2224L4.19885 11.1713ZM4.247 10.3139L3.34828 10.1612C3.34257 10.1948 3.33875 10.2287 3.33683 10.2628L4.247 10.3139ZM4.39084 9.46731L3.51487 9.21494C3.50543 9.24771 3.49783 9.28099 3.49212 9.31461L4.39084 9.46731ZM4.62856 8.64215L3.78635 8.2933C3.7733 8.32481 3.76203 8.35702 3.75259 8.38979L4.62856 8.64215ZM4.95718 7.84881L4.15932 7.40785C4.14283 7.43769 4.12802 7.46844 4.11497 7.49995L4.95718 7.84881ZM5.37256 7.09724L4.62909 6.56972C4.60935 6.59753 4.5912 6.62643 4.5747 6.65628L5.37256 7.09724ZM5.86947 6.3969L5.18974 5.78946C5.16702 5.81489 5.14574 5.84157 5.126 5.86939L5.86947 6.3969ZM6.44167 5.75661L5.83423 5.07688C5.8088 5.09961 5.78467 5.12374 5.76194 5.14917L6.44167 5.75661ZM7.08196 5.18441L6.55445 4.44094C6.52663 4.46068 6.49995 4.48196 6.47452 4.50468L7.08196 5.18441ZM7.7823 4.6875L7.34134 3.88964C7.31149 3.90614 7.28259 3.9243 7.25478 3.94403L7.7823 4.6875ZM8.53386 4.27212L8.18501 3.42991C8.1535 3.44296 8.12275 3.45777 8.0929 3.47427L8.53386 4.27212ZM9.32721 3.9435L9.07485 3.06753C9.04208 3.07697 9.00986 3.08824 8.97836 3.10129L9.32721 3.9435ZM10.1524 3.70578L9.99967 2.80706C9.96605 2.81277 9.93277 2.82037 9.9 2.82981L10.1524 3.70578ZM10.9989 3.56194L10.9478 2.65177C10.9138 2.65369 10.8799 2.65751 10.8462 2.66322L10.9989 3.56194ZM11.8052 4.42396L12.6626 4.47211L12.7648 2.65177L11.9074 2.60363L11.8052 4.42396ZM12.561 4.46066L13.4076 4.6045L13.713 2.80706L12.8664 2.66322L12.561 4.46066ZM13.3079 4.58176L14.133 4.81948L14.6378 3.06753L13.8126 2.82981L13.3079 4.58176ZM14.0366 4.78572L14.8299 5.11433L15.5276 3.42991L14.7343 3.10129L14.0366 4.78572ZM14.7378 5.06998L15.4894 5.48535L16.3713 3.88964L15.6197 3.47427L14.7378 5.06998ZM15.4028 5.43096L16.1031 5.92788L17.1582 4.44094L16.4578 3.94403L15.4028 5.43096ZM16.0232 5.86414L16.6635 6.43634L17.8784 5.07688L17.2381 4.50468L16.0232 5.86414ZM16.5912 6.36405L17.1634 7.00435L18.5229 5.78946L17.9507 5.14917L16.5912 6.36405ZM17.0997 6.92442L17.5966 7.62476L19.0835 6.56972L18.5866 5.86939L17.0997 6.92442ZM17.5422 7.5382L17.9576 8.28977L19.5533 7.40785L19.1379 6.65628L17.5422 7.5382ZM17.9132 8.19766L18.2418 8.99101L19.9263 8.2933L19.5977 7.49995L17.9132 8.19766ZM18.2081 8.89452L18.4458 9.71967L20.1978 9.21494L19.96 8.38979L18.2081 8.89452ZM18.4231 9.62001L18.5669 10.4666L20.3643 10.1612L20.2205 9.31461L18.4231 9.62001ZM18.5555 10.365L18.6036 11.2224L20.4239 11.1201L20.3758 10.2628L18.5555 10.365ZM18.6036 11.1201L18.5555 11.9775L20.3758 12.0797L20.4239 11.2224L18.6036 11.1201ZM18.5669 11.8759L18.4231 12.7225L20.2205 13.0279L20.3643 12.1813L18.5669 11.8759ZM18.4458 12.6228L18.2081 13.448L19.96 13.9527L20.1978 13.1276L18.4458 12.6228ZM18.2418 13.3515L17.9132 14.1448L19.5977 14.8426L19.9263 14.0492L18.2418 13.3515ZM17.9576 14.0527L17.5422 14.8043L19.1379 15.6862L19.5533 14.9347L17.9576 14.0527ZM17.5966 14.7177L17.0997 15.4181L18.5866 16.4731L19.0835 15.7728L17.5966 14.7177ZM17.1634 15.3382L16.5912 15.9785L17.9507 17.1933L18.5229 16.553L17.1634 15.3382ZM16.6635 15.9062L16.0232 16.4784L17.2381 17.8378L17.8784 17.2656L16.6635 15.9062ZM16.1031 16.4146L15.4028 16.9115L16.4578 18.3985L17.1582 17.9016L16.1031 16.4146ZM15.4894 16.8572L14.7378 17.2725L15.6197 18.8682L16.3713 18.4529L15.4894 16.8572ZM14.8299 17.2282L14.0366 17.5568L14.7343 19.2412L15.5276 18.9126L14.8299 17.2282ZM14.133 17.523L13.3079 17.7607L13.8126 19.5127L14.6378 19.275L14.133 17.523ZM13.4076 17.738L12.561 17.8818L12.8664 19.6793L13.713 19.5354L13.4076 17.738ZM12.6626 17.8704L11.8052 17.9185L11.9074 19.7389L12.7648 19.6907L12.6626 17.8704ZM11.9074 17.9185L11.0501 17.8704L10.9478 19.6907L11.8052 19.7389L11.9074 17.9185ZM11.1516 17.8818L10.3051 17.738L9.99967 19.5354L10.8462 19.6793L11.1516 17.8818ZM10.4047 17.7607L9.57958 17.523L9.07485 19.275L9.9 19.5127L10.4047 17.7607ZM9.67607 17.5568L8.88272 17.2282L8.18501 18.9126L8.97836 19.2412L9.67607 17.5568ZM8.97482 17.2725L8.22326 16.8572L7.34134 18.4529L8.0929 18.8682L8.97482 17.2725ZM8.30982 16.9115L7.60948 16.4146L6.55445 17.9016L7.25478 18.3985L8.30982 16.9115ZM7.68941 16.4784L7.04911 15.9062L5.83423 17.2656L6.47452 17.8378L7.68941 16.4784ZM7.1214 15.9785L6.5492 15.3382L5.18974 16.553L5.76194 17.1933L7.1214 15.9785ZM6.61294 15.4181L6.11602 14.7177L4.62909 15.7728L5.126 16.4731L6.61294 15.4181ZM6.17041 14.8043L5.75503 14.0527L4.15932 14.9347L4.5747 15.6862L6.17041 14.8043ZM5.79939 14.1448L5.47077 13.3515L3.78635 14.0492L4.11497 14.8426L5.79939 14.1448ZM5.50454 13.448L5.26682 12.6228L3.51487 13.1276L3.75259 13.9527L5.50454 13.448ZM5.28956 12.7225L5.14572 11.8759L3.34828 12.1813L3.49212 13.0279L5.28956 12.7225ZM5.15717 11.9775L5.10902 11.1201L3.28868 11.2224L3.33683 12.0797L5.15717 11.9775ZM5.10902 11.2224L5.15717 10.365L3.33683 10.2628L3.28868 11.1201L5.10902 11.2224ZM5.14572 10.4666L5.28956 9.62001L3.49212 9.31461L3.34828 10.1612L5.14572 10.4666ZM5.26682 9.71967L5.50454 8.89452L3.75259 8.38979L3.51487 9.21494L5.26682 9.71967ZM5.47077 8.99101L5.79939 8.19766L4.11497 7.49995L3.78635 8.2933L5.47077 8.99101ZM5.75503 8.28977L6.17041 7.5382L4.5747 6.65628L4.15932 7.40785L5.75503 8.28977ZM6.11602 7.62476L6.61294 6.92442L5.126 5.86939L4.62909 6.56972L6.11602 7.62476ZM6.5492 7.00435L7.1214 6.36405L5.76194 5.14917L5.18974 5.78946L6.5492 7.00435ZM7.04911 6.43634L7.68941 5.86414L6.47452 4.50468L5.83423 5.07688L7.04911 6.43634ZM7.60948 5.92788L8.30982 5.43096L7.25478 3.94403L6.55445 4.44094L7.60948 5.92788ZM8.22326 5.48535L8.97482 5.06998L8.0929 3.47427L7.34134 3.88964L8.22326 5.48535ZM8.88272 5.11433L9.67607 4.78572L8.97836 3.10129L8.18501 3.42991L8.88272 5.11433ZM9.57958 4.81948L10.4047 4.58176L9.9 2.82981L9.07485 3.06753L9.57958 4.81948ZM10.3051 4.6045L11.1516 4.46066L10.8462 2.66322L9.99967 2.80706L10.3051 4.6045ZM11.0501 4.47211L11.9074 4.42396L11.8052 2.60363L10.9478 2.65177L11.0501 4.47211Z" fill="#003130"/>
<path d="M7.81723 11.221L9.86841 13.2916C10.2227 13.6493 10.7972 13.6493 11.1515 13.2916L15.8954 8.50269" stroke="#003130" stroke-width="1.8232" stroke-linecap="round" stroke-linejoin="round"/>
</svg>
