<svg width="26" height="26" viewBox="0 0 26 26" fill="none" xmlns="http://www.w3.org/2000/svg">
<g clip-path="url(#clip0_395_782)">
<path d="M12.7378 23.4742C9.83699 23.4742 7.05499 22.3218 5.00381 20.2706C2.95263 18.2195 1.80029 15.4375 1.80029 12.5367C1.80029 9.63585 2.95263 6.85385 5.00381 4.80267C7.05499 2.75149 9.83699 1.59915 12.7378 1.59915C15.6386 1.59915 18.4206 2.75149 20.4718 4.80267C22.523 6.85385 23.6753 9.63585 23.6753 12.5367C23.6753 15.4375 22.523 18.2195 20.4718 20.2706C18.4206 22.3218 15.6386 23.4742 12.7378 23.4742ZM12.7378 25.0367C16.053 25.0367 19.2324 23.7197 21.5766 21.3755C23.9208 19.0313 25.2378 15.8519 25.2378 12.5367C25.2378 9.22145 23.9208 6.04202 21.5766 3.69782C19.2324 1.35361 16.053 0.0366516 12.7378 0.0366516C9.42259 0.0366516 6.24316 1.35361 3.89896 3.69782C1.55475 6.04202 0.237793 9.22145 0.237793 12.5367C0.237793 15.8519 1.55475 19.0313 3.89896 21.3755C6.24316 23.7197 9.42259 25.0367 12.7378 25.0367Z" fill="#C0EA1A"/>
<path d="M15.8628 12.5367C15.8628 13.3655 15.5336 14.1603 14.9475 14.7464C14.3615 15.3324 13.5666 15.6617 12.7378 15.6617C11.909 15.6617 11.1141 15.3324 10.5281 14.7464C9.94203 14.1603 9.61279 13.3655 9.61279 12.5367C9.61279 11.7078 9.94203 10.913 10.5281 10.3269C11.1141 9.74089 11.909 9.41165 12.7378 9.41165C13.5666 9.41165 14.3615 9.74089 14.9475 10.3269C15.5336 10.913 15.8628 11.7078 15.8628 12.5367ZM12.7378 6.28665C11.0802 6.28665 9.49048 6.94513 8.31838 8.11723C7.14627 9.28934 6.48779 10.879 6.48779 12.5367C6.48779 12.7439 6.40548 12.9426 6.25897 13.0891C6.11246 13.2356 5.91374 13.3179 5.70654 13.3179C5.49934 13.3179 5.30063 13.2356 5.15412 13.0891C5.0076 12.9426 4.92529 12.7439 4.92529 12.5367C4.92529 10.4646 5.74839 8.47751 7.21352 7.01238C8.67865 5.54725 10.6658 4.72415 12.7378 4.72415C12.945 4.72415 13.1437 4.80646 13.2902 4.95297C13.4367 5.09949 13.519 5.2982 13.519 5.5054C13.519 5.7126 13.4367 5.91132 13.2902 6.05783C13.1437 6.20434 12.945 6.28665 12.7378 6.28665ZM19.769 11.7554C19.9762 11.7554 20.175 11.8377 20.3215 11.9842C20.468 12.1307 20.5503 12.3295 20.5503 12.5367C20.5503 14.6087 19.7272 16.5958 18.2621 18.0609C16.7969 19.5261 14.8098 20.3492 12.7378 20.3492C12.5306 20.3492 12.3319 20.2668 12.1854 20.1203C12.0389 19.9738 11.9565 19.7751 11.9565 19.5679C11.9565 19.3607 12.0389 19.162 12.1854 19.0155C12.3319 18.869 12.5306 18.7867 12.7378 18.7867C14.3954 18.7867 15.9851 18.1282 17.1572 16.9561C18.3293 15.784 18.9878 14.1943 18.9878 12.5367C18.9878 12.3295 19.0701 12.1307 19.2166 11.9842C19.3631 11.8377 19.5618 11.7554 19.769 11.7554Z" fill="#C0EA1A"/>
</g>
<defs>
<clipPath id="clip0_395_782">
<rect width="25" height="25" fill="white" transform="translate(0.237793 0.0366516)"/>
</clipPath>
</defs>
</svg>
