<svg width="26" height="26" viewBox="0 0 26 26" fill="none" xmlns="http://www.w3.org/2000/svg">
<g clip-path="url(#clip0_63_694)">
<path d="M9.06252 11.425C8.85367 11.425 8.65336 11.508 8.50568 11.6556C8.35799 11.8033 8.27502 12.0036 8.27502 12.2125C8.27502 12.4213 8.35799 12.6216 8.50568 12.7693C8.65336 12.917 8.85367 13 9.06252 13H16.9375C17.1464 13 17.3467 12.917 17.4944 12.7693C17.6421 12.6216 17.725 12.4213 17.725 12.2125C17.725 12.0036 17.6421 11.8033 17.4944 11.6556C17.3467 11.508 17.1464 11.425 16.9375 11.425H9.06252ZM8.27502 15.3625C8.27502 15.1536 8.35799 14.9533 8.50568 14.8056C8.65336 14.658 8.85367 14.575 9.06252 14.575H16.9375C17.1464 14.575 17.3467 14.658 17.4944 14.8056C17.6421 14.9533 17.725 15.1536 17.725 15.3625C17.725 15.5713 17.6421 15.7717 17.4944 15.9193C17.3467 16.067 17.1464 16.15 16.9375 16.15H9.06252C8.85367 16.15 8.65336 16.067 8.50568 15.9193C8.35799 15.7717 8.27502 15.5713 8.27502 15.3625ZM8.27502 18.5125C8.27502 18.3036 8.35799 18.1033 8.50568 17.9556C8.65336 17.808 8.85367 17.725 9.06252 17.725H12.2125C12.4214 17.725 12.6217 17.808 12.7694 17.9556C12.9171 18.1033 13 18.3036 13 18.5125C13 18.7213 12.9171 18.9217 12.7694 19.0693C12.6217 19.217 12.4214 19.3 12.2125 19.3H9.06252C8.85367 19.3 8.65336 19.217 8.50568 19.0693C8.35799 18.9217 8.27502 18.7213 8.27502 18.5125Z" fill="white"/>
<path d="M15.3625 0.399994H6.70005C5.86462 0.399994 5.0634 0.731868 4.47266 1.32261C3.88192 1.91335 3.55005 2.71456 3.55005 3.54999V22.45C3.55005 23.2854 3.88192 24.0866 4.47266 24.6774C5.0634 25.2681 5.86462 25.6 6.70005 25.6H19.3C20.1355 25.6 20.9367 25.2681 21.5274 24.6774C22.1182 24.0866 22.45 23.2854 22.45 22.45V7.48749L15.3625 0.399994ZM15.3625 1.97499V5.12499C15.3625 5.75157 15.6115 6.35248 16.0545 6.79553C16.4976 7.23859 17.0985 7.48749 17.725 7.48749H20.875V22.45C20.875 22.8677 20.7091 23.2683 20.4137 23.5637C20.1184 23.8591 19.7178 24.025 19.3 24.025H6.70005C6.28233 24.025 5.88173 23.8591 5.58636 23.5637C5.29099 23.2683 5.12505 22.8677 5.12505 22.45V3.54999C5.12505 3.13228 5.29099 2.73167 5.58636 2.4363C5.88173 2.14093 6.28233 1.97499 6.70005 1.97499H15.3625Z" fill="white"/>
</g>
<defs>
<clipPath id="clip0_63_694">
<rect width="25.2" height="25.2" fill="white" transform="translate(0.400024 0.399994)"/>
</clipPath>
</defs>
</svg>
