<svg width="30" height="30" viewBox="0 0 30 30" fill="none" xmlns="http://www.w3.org/2000/svg">
<path d="M11.25 3.0725V5.7275C9.10116 6.60006 7.32225 8.19213 6.21757 10.2314C5.1129 12.2707 4.7511 14.6304 5.19407 16.9069C5.63703 19.1835 6.85724 21.2354 8.64596 22.7117C10.4347 24.1879 12.6808 24.9968 15 25C16.9924 25.0002 18.9396 24.4054 20.5918 23.2919C22.244 22.1784 23.5261 20.5969 24.2738 18.75H26.9275C25.335 23.8213 20.5975 27.5 15 27.5C8.09625 27.5 2.5 21.9037 2.5 15C2.5 9.4025 6.17875 4.665 11.25 3.0725ZM15 2.5C21.9037 2.5 27.5 8.09625 27.5 15C27.5 15.4225 27.4788 15.8387 27.4375 16.25H13.75V2.5625C14.1613 2.52125 14.5775 2.5 15 2.5ZM16.25 5.0775V13.75H24.9225C24.6443 11.547 23.6411 9.49917 22.071 7.92904C20.5008 6.35892 18.453 5.35573 16.25 5.0775Z" fill="#003130"/>
</svg>
