<svg width="23" height="23" viewBox="0 0 23 23" fill="none" xmlns="http://www.w3.org/2000/svg">
<path d="M19.4975 7.04629H15.9129V5.25398L14.1205 3.46167H10.5359L8.74362 5.25398V7.04629H5.15901C4.17324 7.04629 3.3667 7.85282 3.3667 8.83859V13.3194C3.3667 13.9915 3.72516 14.5561 4.26285 14.8697V17.8001C4.26285 18.7949 5.06043 19.5924 6.05516 19.5924H18.6013C19.596 19.5924 20.3936 18.7949 20.3936 17.8001V14.8607C20.9224 14.5471 21.2898 13.9736 21.2898 13.3194V8.83859C21.2898 7.85282 20.4832 7.04629 19.4975 7.04629ZM10.5359 5.25398H14.1205V7.04629H10.5359V5.25398ZM5.15901 8.83859H19.4975V13.3194H15.0167V10.6309H9.63978V13.3194H5.15901V8.83859ZM13.2244 14.2155H11.4321V12.4232H13.2244V14.2155ZM18.6013 17.8001H6.05516V15.1117H9.63978V16.0078H15.0167V15.1117H18.6013V17.8001Z" fill="#AAAAAA"/>
</svg>
