<svg width="30" height="31" viewBox="0 0 30 31" fill="none" xmlns="http://www.w3.org/2000/svg">
<g clip-path="url(#clip0_2_286)">
<path d="M30 15.4365C30 19.4148 28.4196 23.2301 25.6066 26.0431C22.7936 28.8562 18.9782 30.4365 15 30.4365C11.0218 30.4365 7.20644 28.8562 4.3934 26.0431C1.58035 23.2301 0 19.4148 0 15.4365C0 11.4583 1.58035 7.64297 4.3934 4.82992C7.20644 2.01688 11.0218 0.436523 15 0.436523C18.9782 0.436523 22.7936 2.01688 25.6066 4.82992C28.4196 7.64297 30 11.4583 30 15.4365ZM22.5562 9.75527C22.4223 9.62181 22.2628 9.51672 22.0874 9.4463C21.9119 9.37588 21.724 9.34157 21.535 9.34542C21.3459 9.34927 21.1596 9.3912 20.9872 9.46871C20.8147 9.54622 20.6596 9.65771 20.5312 9.79652L14.0194 18.0934L10.095 14.1671C9.82842 13.9187 9.47583 13.7835 9.11152 13.7899C8.74721 13.7964 8.39961 13.944 8.14196 14.2016C7.88431 14.4593 7.73672 14.8069 7.7303 15.1712C7.72387 15.5355 7.8591 15.8881 8.1075 16.1546L13.0687 21.1178C13.2024 21.2512 13.3616 21.3563 13.5367 21.4269C13.7119 21.4974 13.8995 21.532 14.0883 21.5285C14.2771 21.525 14.4633 21.4835 14.6357 21.4065C14.8081 21.3295 14.9633 21.2185 15.0919 21.0803L22.5769 11.724C22.8321 11.4587 22.973 11.1039 22.9695 10.7358C22.966 10.3677 22.8183 10.0157 22.5581 9.75527H22.5562Z" fill="#003130"/>
</g>
<defs>
<clipPath id="clip0_2_286">
<rect width="30" height="30" fill="white" transform="translate(0 0.436523)"/>
</clipPath>
</defs>
</svg>
