<svg width="26" height="26" viewBox="0 0 26 26" fill="none" xmlns="http://www.w3.org/2000/svg">
<g clip-path="url(#clip0_49_909)">
<path fill-rule="evenodd" clip-rule="evenodd" d="M1.97504 18.5125C1.97504 18.7213 2.05801 18.9216 2.20569 19.0693C2.35338 19.217 2.55368 19.3 2.76254 19.3H21.3365L16.38 24.2549C16.2321 24.4028 16.149 24.6034 16.149 24.8125C16.149 25.0216 16.2321 25.2222 16.38 25.37C16.5279 25.5179 16.7284 25.601 16.9375 25.601C17.1467 25.601 17.3472 25.5179 17.4951 25.37L23.7951 19.07C23.8684 18.9969 23.9266 18.91 23.9663 18.8143C24.006 18.7186 24.0264 18.6161 24.0264 18.5125C24.0264 18.4089 24.006 18.3063 23.9663 18.2107C23.9266 18.115 23.8684 18.0281 23.7951 17.9549L17.4951 11.6549C17.3472 11.5071 17.1467 11.424 16.9375 11.424C16.7284 11.424 16.5279 11.5071 16.38 11.6549C16.2321 11.8028 16.149 12.0034 16.149 12.2125C16.149 12.4216 16.2321 12.6222 16.38 12.77L21.3365 17.725H2.76254C2.55368 17.725 2.35338 17.8079 2.20569 17.9556C2.05801 18.1033 1.97504 18.3036 1.97504 18.5125ZM24.025 7.48748C24.025 7.69634 23.9421 7.89664 23.7944 8.04433C23.6467 8.19201 23.4464 8.27498 23.2375 8.27498H4.66357L9.62009 13.2299C9.69331 13.3031 9.75139 13.3901 9.79101 13.4857C9.83064 13.5814 9.85104 13.6839 9.85104 13.7875C9.85104 13.891 9.83064 13.9936 9.79101 14.0892C9.75139 14.1849 9.69331 14.2718 9.62009 14.345C9.54687 14.4182 9.45995 14.4763 9.36428 14.516C9.26862 14.5556 9.16609 14.576 9.06254 14.576C8.95899 14.576 8.85646 14.5556 8.7608 14.516C8.66513 14.4763 8.57821 14.4182 8.50499 14.345L2.20499 8.04503C2.13165 7.97188 2.07347 7.88498 2.03377 7.7893C1.99407 7.69363 1.97363 7.59106 1.97363 7.48748C1.97363 7.3839 1.99407 7.28133 2.03377 7.18566C2.07347 7.08998 2.13165 7.00308 2.20499 6.92993L8.50499 0.629932C8.65286 0.48206 8.85342 0.398987 9.06254 0.398987C9.27166 0.398987 9.47222 0.48206 9.62009 0.629932C9.76796 0.777803 9.85104 0.97836 9.85104 1.18748C9.85104 1.3966 9.76796 1.59716 9.62009 1.74503L4.66357 6.69998H23.2375C23.4464 6.69998 23.6467 6.78295 23.7944 6.93063C23.9421 7.07832 24.025 7.27862 24.025 7.48748Z" fill="white"/>
</g>
<defs>
<clipPath id="clip0_49_909">
<rect width="25.2" height="25.2" fill="white" transform="translate(0.400024 0.399994)"/>
</clipPath>
</defs>
</svg>
