<svg width="26" height="26" viewBox="0 0 26 26" fill="none" xmlns="http://www.w3.org/2000/svg">
<g clip-path="url(#clip0_49_881)">
<path d="M4.37218 8.27509H3.55003C3.43683 8.2752 3.32498 8.29972 3.22211 8.34697C3.11924 8.39422 3.02776 8.46309 2.95392 8.54889C2.88008 8.6347 2.8256 8.73541 2.7942 8.84417C2.7628 8.95293 2.75522 9.06718 2.77198 9.17914L4.93288 23.5888C5.01693 24.1479 5.29867 24.6583 5.72696 25.0273C6.15525 25.3964 6.70168 25.5996 7.26703 25.6001H18.7299C19.2955 25.6 19.8423 25.3969 20.2709 25.0278C20.6995 24.6588 20.9815 24.1482 21.0656 23.5888L23.2281 9.17914C23.2448 9.06718 23.2373 8.95293 23.2059 8.84417C23.1745 8.73541 23.12 8.6347 23.0461 8.54889C22.9723 8.46309 22.8808 8.39422 22.7779 8.34697C22.6751 8.29972 22.5632 8.2752 22.45 8.27509H21.6279C21.4346 6.1203 20.4419 4.11584 18.8453 2.656C17.2486 1.19615 15.1635 0.386612 13 0.386612C10.8366 0.386612 8.75145 1.19615 7.15478 2.656C5.55811 4.11584 4.56549 6.1203 4.37218 8.27509ZM5.95505 8.27509C6.14759 6.54149 6.97264 4.93977 8.27231 3.77646C9.57198 2.61315 11.255 1.96994 12.9992 1.96994C14.7435 1.96994 16.4265 2.61315 17.7262 3.77646C19.0258 4.93977 19.8509 6.54149 20.0434 8.27509H5.95505Z" fill="black"/>
</g>
<defs>
<clipPath id="clip0_49_881">
<rect width="25.2" height="25.2" fill="white" transform="translate(0.400024 0.400024)"/>
</clipPath>
</defs>
</svg>
