<svg width="27" height="27" viewBox="0 0 27 27" fill="none" xmlns="http://www.w3.org/2000/svg">
<g clip-path="url(#clip0_2_1550)">
<path d="M23.3037 2.54712C23.7266 2.54712 24.1321 2.71509 24.431 3.01406C24.73 3.31304 24.898 3.71854 24.898 4.14136V23.2723C24.898 23.6951 24.73 24.1006 24.431 24.3995C24.1321 24.6985 23.7266 24.8665 23.3037 24.8665H4.17286C3.75004 24.8665 3.34454 24.6985 3.04556 24.3995C2.74658 24.1006 2.57862 23.6951 2.57862 23.2723V4.14136C2.57862 3.71854 2.74658 3.31304 3.04556 3.01406C3.34454 2.71509 3.75004 2.54712 4.17286 2.54712H23.3037ZM4.17286 0.952881C3.32722 0.952881 2.51622 1.28881 1.91826 1.88677C1.3203 2.48472 0.984375 3.29572 0.984375 4.14136L0.984375 23.2723C0.984375 24.1179 1.3203 24.9289 1.91826 25.5268C2.51622 26.1248 3.32722 26.4607 4.17286 26.4607H23.3037C24.1494 26.4607 24.9604 26.1248 25.5583 25.5268C26.1563 24.9289 26.4922 24.1179 26.4922 23.2723V4.14136C26.4922 3.29572 26.1563 2.48472 25.5583 1.88677C24.9604 1.28881 24.1494 0.952881 23.3037 0.952881L4.17286 0.952881Z" fill="#FF2E00"/>
<path d="M9.75269 20.0838C9.75269 20.718 9.50075 21.3262 9.05228 21.7747C8.60381 22.2232 7.99556 22.4751 7.36133 22.4751C6.7271 22.4751 6.11885 22.2232 5.67038 21.7747C5.22192 21.3262 4.96997 20.718 4.96997 20.0838C4.96997 19.4495 5.22192 18.8413 5.67038 18.3928C6.11885 17.9443 6.7271 17.6924 7.36133 17.6924C7.99556 17.6924 8.60381 17.9443 9.05228 18.3928C9.50075 18.8413 9.75269 19.4495 9.75269 20.0838ZM4.96997 6.53272C4.96997 6.1099 5.13793 5.7044 5.43691 5.40542C5.73589 5.10644 6.14139 4.93848 6.56421 4.93848C15.3692 4.93848 22.5066 12.0759 22.5066 20.8809C22.5066 21.3037 22.3387 21.7092 22.0397 22.0082C21.7407 22.3072 21.3352 22.4751 20.9124 22.4751C20.4896 22.4751 20.0841 22.3072 19.7851 22.0082C19.4861 21.7092 19.3181 21.3037 19.3181 20.8809C19.3181 17.4983 17.9744 14.2543 15.5826 11.8625C13.1908 9.47067 9.94676 8.12696 6.56421 8.12696C6.14139 8.12696 5.73589 7.95899 5.43691 7.66002C5.13793 7.36104 4.96997 6.95554 4.96997 6.53272ZM4.96997 12.9097C4.96997 12.4869 5.13793 12.0814 5.43691 11.7824C5.73589 11.4834 6.14139 11.3154 6.56421 11.3154C9.10113 11.3154 11.5341 12.3232 13.328 14.1171C15.1219 15.911 16.1297 18.344 16.1297 20.8809C16.1297 21.3037 15.9617 21.7092 15.6627 22.0082C15.3637 22.3072 14.9582 22.4751 14.5354 22.4751C14.1126 22.4751 13.7071 22.3072 13.4081 22.0082C13.1091 21.7092 12.9412 21.3037 12.9412 20.8809C12.9412 19.1896 12.2693 17.5676 11.0734 16.3717C9.87749 15.1758 8.25549 14.5039 6.56421 14.5039C6.14139 14.5039 5.73589 14.336 5.43691 14.037C5.13793 13.738 4.96997 13.3325 4.96997 12.9097Z" fill="#FF2E00"/>
</g>
<defs>
<clipPath id="clip0_2_1550">
<rect width="25.5079" height="25.5079" fill="white" transform="translate(0.984375 0.952881)"/>
</clipPath>
</defs>
</svg>
