<svg width="18" height="19" viewBox="0 0 18 19" fill="none" xmlns="http://www.w3.org/2000/svg">
<g clip-path="url(#clip0_237_1316)">
<path d="M16.4373 2.37817H14.0102V1.25798C14.0103 1.10943 13.9514 0.966931 13.8464 0.861822C13.7415 0.756714 13.599 0.697609 13.4505 0.69751C13.3019 0.697411 13.1594 0.756326 13.0543 0.861294C12.9492 0.966263 12.8901 1.10869 12.89 1.25723V2.37817H9.52945V1.25798C9.5295 1.18443 9.51506 1.11158 9.48696 1.04361C9.45885 0.975639 9.41764 0.913867 9.36566 0.861822C9.31369 0.809778 9.25197 0.76848 9.18404 0.740288C9.1161 0.712095 9.04328 0.697559 8.96972 0.69751C8.82118 0.697411 8.67868 0.756326 8.57357 0.861294C8.46846 0.966263 8.40935 1.10869 8.40926 1.25723V2.37817H5.04868V1.25798C5.04873 1.18443 5.03429 1.11158 5.00619 1.04361C4.97808 0.975639 4.93687 0.913867 4.88489 0.861822C4.83292 0.809778 4.7712 0.76848 4.70327 0.740288C4.63533 0.712095 4.56251 0.697559 4.48896 0.69751C4.34041 0.697411 4.19791 0.756326 4.0928 0.861294C3.98769 0.966263 3.92858 1.10869 3.92849 1.25723V2.37817H1.5014C1.10541 2.37817 0.72562 2.53543 0.445539 2.81537C0.165458 3.09531 0.0080105 3.47502 0.0078125 3.87101V17.1266C0.0078125 17.5227 0.165172 17.9026 0.445275 18.1827C0.725377 18.4629 1.10528 18.6202 1.5014 18.6202H16.4373C16.8334 18.6202 17.2133 18.4629 17.4934 18.1827C17.7735 17.9026 17.9309 17.5227 17.9309 17.1266V3.87101C17.9307 3.47502 17.7732 3.09531 17.4932 2.81537C17.2131 2.53543 16.8333 2.37817 16.4373 2.37817ZM16.8107 17.1274C16.8107 17.2263 16.7715 17.3211 16.7016 17.3911C16.6317 17.4611 16.5369 17.5006 16.438 17.5008H1.5014C1.40237 17.5008 1.3074 17.4614 1.23737 17.3914C1.16734 17.3214 1.128 17.2264 1.128 17.1274V3.87176C1.1282 3.77286 1.16763 3.67808 1.23763 3.60821C1.30764 3.53835 1.4025 3.49911 1.5014 3.49911H3.92849V4.6193C3.92839 4.76785 3.9873 4.91035 4.09227 5.01546C4.19724 5.12057 4.33966 5.17967 4.48821 5.17977C4.63675 5.17987 4.77926 5.12096 4.88437 5.01599C4.98947 4.91102 5.04858 4.7686 5.04868 4.62005V3.49911H8.40926V4.6193C8.40916 4.76785 8.46807 4.91035 8.57304 5.01546C8.67801 5.12057 8.82043 5.17967 8.96898 5.17977C9.11752 5.17987 9.26003 5.12096 9.36514 5.01599C9.47024 4.91102 9.52935 4.7686 9.52945 4.62005V3.49911H12.89V4.6193C12.8899 4.76785 12.9488 4.91035 13.0538 5.01546C13.1588 5.12057 13.3012 5.17967 13.4497 5.17977C13.5983 5.17987 13.7408 5.12096 13.8459 5.01599C13.951 4.91102 14.0101 4.7686 14.0102 4.62005V3.49911H16.4373C16.5361 3.49931 16.6307 3.53863 16.7006 3.60848C16.7704 3.67832 16.8098 3.77299 16.81 3.87176L16.8107 17.1274Z" fill="#898A8D"/>
<path d="M3.92847 7.41895H6.16885V9.09923H3.92847V7.41895ZM3.92847 10.2194H6.16885V11.8997H3.92847V10.2194ZM3.92847 13.0199H6.16885V14.7002H3.92847V13.0199ZM7.84914 13.0199H10.0895V14.7002H7.84914V13.0199ZM7.84914 10.2194H10.0895V11.8997H7.84914V10.2194ZM7.84914 7.41895H10.0895V9.09923H7.84914V7.41895ZM11.7698 13.0199H14.0102V14.7002H11.7698V13.0199ZM11.7698 10.2194H14.0102V11.8997H11.7698V10.2194ZM11.7698 7.41895H14.0102V9.09923H11.7698V7.41895Z" fill="#898A8D"/>
</g>
<defs>
<clipPath id="clip0_237_1316">
<rect width="17.9231" height="17.9231" fill="white" transform="translate(0.0078125 0.697998)"/>
</clipPath>
</defs>
</svg>
