<svg width="21" height="23" viewBox="0 0 21 23" fill="none" xmlns="http://www.w3.org/2000/svg">
<g clip-path="url(#clip0_237_1374)">
<path d="M13.227 0.773193C13.6563 0.857372 14.094 0.912088 14.5149 1.03415C17.0192 1.74125 18.8922 3.95515 19.1995 6.53944C19.5951 9.88976 17.5075 12.9539 14.275 13.7662C10.6553 14.6753 6.94303 12.2678 6.29485 8.5892C5.73086 5.40724 7.39339 2.38522 10.3775 1.22355C10.9121 1.01731 11.4971 0.94576 12.0611 0.811074C12.1158 0.798447 12.1705 0.78582 12.221 0.773193C12.5535 0.773193 12.8903 0.773193 13.227 0.773193ZM17.9915 7.36019C17.9831 4.40551 15.6135 2.02325 12.6924 2.03588C9.78827 2.04429 7.42706 4.45181 7.43548 7.38544C7.44389 10.3191 9.82616 12.7098 12.7303 12.7013C15.6303 12.6929 17.9999 10.2896 17.9915 7.36019Z" fill="#003130" stroke="#003130" stroke-width="0.358462"/>
<path d="M3.89242 16.0937C3.93451 15.9211 3.95977 15.7696 4.01028 15.6265C4.30069 14.8057 4.91941 14.4017 5.74436 14.2165C7.15015 13.9008 8.48859 14.0439 9.78074 14.7047C10.2437 14.9404 10.732 15.1467 11.2286 15.315C11.5274 15.416 11.8557 15.4539 12.1756 15.4665C12.8112 15.4876 13.4509 15.4708 14.0865 15.475C14.5495 15.475 14.7978 15.7317 14.7852 16.1947C14.7683 16.8218 14.5705 17.3858 14.1917 17.9372C14.5032 17.9372 14.7852 17.9456 15.063 17.933C15.1177 17.9288 15.1724 17.853 15.2229 17.8025C15.8121 17.2133 16.3972 16.6198 16.9907 16.039C18.1397 14.9152 19.9453 14.8815 21.1407 15.9548C21.5195 16.2957 21.5321 16.6619 21.1743 17.0196C19.7012 18.497 18.2239 19.9701 16.7507 21.4432C16.1825 22.0114 15.4965 22.2892 14.6968 22.2892C10.4626 22.2892 6.22839 22.2892 1.99419 22.2892C1.49333 22.2808 1.25342 22.0409 1.25342 21.5443C1.25342 19.9701 1.25342 18.396 1.25342 16.8176C1.25342 16.3252 1.48912 16.0937 1.98998 16.0937C2.61712 16.0895 3.24846 16.0937 3.89242 16.0937ZM5.16353 21.0223C5.26454 21.0223 5.3403 21.0223 5.41606 21.0223C8.48017 21.0223 11.5485 21.0181 14.6126 21.0266C15.1261 21.0266 15.547 20.8582 15.909 20.492C17.1632 19.2293 18.4217 17.9751 19.6802 16.7166C19.7223 16.6745 19.7559 16.6282 19.8064 16.5735C19.7559 16.5525 19.7265 16.5314 19.6928 16.523C18.9815 16.2999 18.3544 16.4472 17.8198 16.9733C17.1843 17.6047 16.5445 18.2318 15.9216 18.8758C15.6985 19.1031 15.4586 19.2041 15.1429 19.1999C13.1774 19.1915 11.2076 19.1915 9.24199 19.1915C8.98104 19.1915 8.72429 19.1957 8.46334 19.183C8.21922 19.1704 8.04244 19.0357 7.94143 18.8169C7.84462 18.6022 7.86567 18.3918 8.00456 18.1981C8.15187 17.9877 8.36653 17.9246 8.61065 17.9246C9.54082 17.9288 10.471 17.9288 11.4054 17.9288C11.5864 17.9288 11.7716 17.9288 11.9483 17.9119C12.5923 17.8404 13.2279 17.3185 13.3878 16.725C13.0048 16.725 12.6302 16.7208 12.2556 16.725C11.6621 16.7334 11.0813 16.6408 10.5341 16.4136C10.0291 16.2073 9.5282 15.9927 9.03996 15.7485C7.99193 15.2308 6.91865 15.1972 5.8117 15.5002C5.35714 15.6223 5.16353 15.8832 5.16353 16.3504C5.16353 17.4616 5.16353 18.577 5.16353 19.6881C5.16353 20.1258 5.16353 20.5594 5.16353 21.0223ZM3.89242 21.0097C3.89242 19.7849 3.89242 18.577 3.89242 17.3648C3.42944 17.3648 2.98329 17.3648 2.52452 17.3648C2.52452 18.5854 2.52452 19.7933 2.52452 21.0097C2.98329 21.0097 3.42944 21.0097 3.89242 21.0097Z" fill="#003130" stroke="#003130" stroke-width="0.358462"/>
<g clip-path="url(#clip1_237_1374)">
<path d="M13.7501 5.48015C13.7501 5.31772 13.7541 5.15489 13.7501 4.99246C13.747 4.90651 13.7793 4.88325 13.8609 4.88444C14.0923 4.88877 14.3242 4.89035 14.5552 4.88444C14.6538 4.88168 14.6818 4.91479 14.6802 5.0106C14.675 5.31575 14.6829 5.6213 14.6762 5.92684C14.6739 6.03881 14.7003 6.08455 14.8221 6.07982C15.0878 6.07351 15.0882 6.07981 15.0882 6.35343C15.0882 6.51586 15.0847 6.67869 15.0882 6.84112C15.0906 6.91997 15.0697 6.95151 14.9826 6.95309C14.6774 6.9594 14.6774 6.96334 14.6774 7.27598C14.6774 7.42856 14.6814 7.58153 14.6774 7.73411C14.6747 7.81769 14.703 7.84292 14.7866 7.84568C15.0882 7.85436 15.0882 7.85751 15.0882 8.15675C15.0882 8.30933 15.0847 8.4623 15.0882 8.61487C15.091 8.69767 15.0634 8.72329 14.979 8.72487C14.677 8.73118 14.6774 8.73473 14.6774 9.03594C14.6774 9.26736 14.6739 9.49919 14.6774 9.73022C14.6774 9.82169 14.6471 9.8485 14.5591 9.84652C14.3033 9.8414 14.0466 9.841 13.7907 9.84652C13.7547 9.85001 13.7185 9.8424 13.6869 9.82471C13.6554 9.80703 13.6299 9.78011 13.6141 9.74757C13.4312 9.44399 13.2404 9.14515 13.059 8.84078C13.0085 8.75562 12.9545 8.71738 12.8504 8.71935C12.5007 8.72684 12.151 8.72526 11.8013 8.71935C11.7043 8.71935 11.676 8.74734 11.6779 8.84354C11.6838 9.13411 11.6756 9.42467 11.6823 9.71524C11.6846 9.8209 11.6503 9.84928 11.5482 9.84574C11.3266 9.83864 11.1047 9.83706 10.8835 9.84574C10.7672 9.85086 10.7431 9.80631 10.7451 9.70183C10.7514 9.42112 10.7424 9.14041 10.7495 8.8597C10.7522 8.75168 10.725 8.71501 10.6111 8.71777C10.3489 8.72408 10.3485 8.71777 10.3485 8.45875C10.3485 8.28646 10.3517 8.11378 10.3485 7.94149C10.3485 7.86264 10.3757 7.84253 10.451 7.83977C10.7487 7.82794 10.7487 7.82518 10.7487 7.52436C10.7487 7.37179 10.7443 7.21882 10.7487 7.06624C10.7518 6.97793 10.7246 6.94796 10.6328 6.94796C10.3485 6.9452 10.3485 6.94126 10.3485 6.65149C10.3485 6.49891 10.3532 6.34594 10.3485 6.19336C10.3446 6.10347 10.3729 6.07508 10.4644 6.07508C10.7495 6.07075 10.7495 6.06641 10.7495 5.77387C10.7495 5.51761 10.7522 5.26134 10.7495 5.00547C10.7495 4.91913 10.7707 4.88246 10.8654 4.88483C11.1165 4.89074 11.3676 4.88995 11.6188 4.88483C11.6526 4.88212 11.6864 4.88981 11.7157 4.90686C11.745 4.92391 11.7684 4.94952 11.7828 4.98024C11.9799 5.30905 12.1857 5.63391 12.3829 5.96351C12.431 6.04236 12.4818 6.08179 12.58 6.08179C12.9297 6.07548 13.2794 6.07627 13.6291 6.08179C13.7253 6.08179 13.7588 6.05379 13.7545 5.95602C13.747 5.79832 13.7545 5.64062 13.7545 5.48291L13.7501 5.48015ZM12.9872 6.95072C13.1706 7.24996 13.3385 7.52555 13.5088 7.79995C13.5558 7.87525 13.6342 7.84174 13.6985 7.83937C13.7773 7.83622 13.7482 7.76683 13.7486 7.72386C13.7513 7.50229 13.7486 7.28072 13.7486 7.05914C13.7486 7.00553 13.7588 6.94875 13.6725 6.94993C13.4544 6.95269 13.2348 6.95072 12.9872 6.95072ZM12.438 7.84253L11.9161 6.99646C11.8687 6.91958 11.7919 6.95112 11.7284 6.95388C11.6495 6.95782 11.6819 7.0276 11.6815 7.06939C11.6783 7.29057 11.6815 7.51175 11.6815 7.73293C11.6815 7.78497 11.6673 7.8445 11.7552 7.84332C11.9728 7.84095 12.1916 7.84253 12.438 7.84253Z" fill="#003130"/>
</g>
</g>
<defs>
<clipPath id="clip0_237_1374">
<rect width="20.1735" height="21.5077" fill="white" transform="translate(0.420166 0.773193)"/>
</clipPath>
<clipPath id="clip1_237_1374">
<rect width="4.74131" height="4.96406" fill="white" transform="translate(10.3462 4.88379)"/>
</clipPath>
</defs>
</svg>
