<svg width="20" height="20" viewBox="0 0 20 20" fill="none" xmlns="http://www.w3.org/2000/svg">
<g clip-path="url(#clip0_86_950)">
<path d="M13.7744 0.989812C13.8902 1.05694 13.9798 1.16134 14.0286 1.28597C14.0774 1.4106 14.0824 1.54808 14.043 1.67597L11.9123 8.59905H15.8435C15.9591 8.599 16.0721 8.63279 16.1686 8.69623C16.2652 8.75968 16.341 8.85001 16.3868 8.95607C16.4326 9.06214 16.4464 9.17929 16.4263 9.29307C16.4063 9.40685 16.3534 9.51228 16.2742 9.59634L6.80994 19.6521C6.71836 19.7495 6.5965 19.8129 6.46422 19.8322C6.33194 19.8514 6.19704 19.8253 6.08151 19.7581C5.96598 19.6909 5.87662 19.5865 5.82801 19.462C5.7794 19.3374 5.7744 19.2001 5.81383 19.0724L7.94446 12.1481H4.01326C3.89773 12.1482 3.78472 12.1144 3.68817 12.0509C3.59162 11.9875 3.51577 11.8972 3.46997 11.7911C3.42417 11.685 3.41044 11.5679 3.43046 11.4541C3.45048 11.3403 3.50338 11.2349 3.58264 11.1508L13.0469 1.0951C13.1383 0.997856 13.26 0.93441 13.3921 0.915079C13.5242 0.895748 13.6589 0.92167 13.7744 0.988629V0.989812ZM5.38202 10.9651H8.74537C8.83794 10.9651 8.92922 10.9868 9.01187 11.0285C9.09452 11.0702 9.16623 11.1307 9.22124 11.2051C9.27625 11.2796 9.31301 11.3659 9.32858 11.4572C9.34414 11.5484 9.33807 11.642 9.31086 11.7305L7.69247 16.9867L14.4736 9.78207H11.1114C11.0189 9.78209 10.9276 9.76038 10.8449 9.71869C10.7623 9.67701 10.6906 9.6165 10.6356 9.54205C10.5805 9.46759 10.5438 9.38127 10.5282 9.29002C10.5127 9.19876 10.5187 9.10513 10.5459 9.01665L12.1643 3.76046L5.38202 10.9651Z" fill="white"/>
</g>
<defs>
<clipPath id="clip0_86_950">
<rect width="18.9284" height="18.9284" fill="white" transform="translate(0.464233 0.909607)"/>
</clipPath>
</defs>
</svg>
