<svg width="26" height="26" viewBox="0 0 26 26" fill="none" xmlns="http://www.w3.org/2000/svg">
<path d="M13.096 22.9409C14.7891 22.9409 15.7563 22.1459 15.9855 21.116H10.2073C10.4365 22.1459 11.403 22.9409 13.096 22.9409Z" fill="#D0CFCE"/>
<path d="M16.4594 3.81158C16.4594 3.81158 12.1266 2.58685 10.0116 4.26116C7.89659 5.93546 7.7439 9.78786 7.7439 9.78786C7.95115 10.5719 9.24107 12.7967 9.24107 12.7967C9.43237 13.1195 10.0392 15.4471 10.3921 16.8213H16.0322C16.339 15.8134 17.5733 12.1626 17.7345 11.787C17.9414 11.3042 18.2942 10.3643 18.4724 10.0096C18.9011 9.15618 18.8855 8.4037 18.663 7.52014C18.1819 5.61236 17.7866 5.13834 16.4591 3.81087L16.4594 3.81158Z" fill="#FCEA2B"/>
<path d="M13.0961 2.58729C10.0735 2.58729 7.2506 4.97936 7.2506 8.00062C7.2506 8.38289 7.15707 9.59168 7.68175 9.59168C7.68175 9.59168 8.52954 6.81947 10.6442 5.14552C12.7589 3.47156 16.1426 3.82584 16.1426 3.82584C15.9073 3.10134 14.1763 2.58623 13.0972 2.58623L13.0961 2.58729Z" fill="white"/>
<path d="M13.1992 16.7651V12.5351M15.3142 12.5351H11.0842M19.0625 8.45025C19.0625 9.86204 18.4301 10.5433 17.7325 12.1701C17.5543 12.5854 16.2407 16.9104 16.2407 16.9104H10.1577C10.1577 16.9104 9.10165 12.776 8.90148 12.4394C8.06185 11.023 7.33594 9.99135 7.33594 8.45025C7.33594 5.21182 9.96112 2.58699 13.1992 2.58699C16.4373 2.58699 19.0625 5.21217 19.0625 8.45025Z" stroke="black" stroke-width="0.978117" stroke-linecap="round" stroke-linejoin="round"/>
<path d="M16.09 20.8657C16.09 22.0135 14.7965 22.9442 13.2009 22.9442C11.6052 22.9442 10.3118 22.0135 10.3118 20.8657H16.09Z" stroke="black" stroke-width="0.829444" stroke-linecap="round" stroke-linejoin="round"/>
<path d="M10.3616 19.5146L16.0371 18.2852" stroke="black" stroke-width="0.961" stroke-linecap="round" stroke-linejoin="round"/>
<path d="M13.9786 19.9012L16.0263 19.4831M10.3721 18.3176L12.4198 17.8995" stroke="black" stroke-width="0.978117" stroke-linecap="round" stroke-linejoin="round"/>
</svg>
