<svg width="8" height="8" viewBox="0 0 8 8" fill="none" xmlns="http://www.w3.org/2000/svg">
<path d="M0.666585 1.75665L1.09325 1.33331L6.66659 6.90665L6.24325 7.33331L5.21659 6.30665C4.83325 6.43331 4.42659 6.49998 3.99992 6.49998C2.33325 6.49998 0.909919 5.46331 0.333252 3.99998C0.563252 3.41331 0.929919 2.89665 1.39659 2.48665L0.666585 1.75665ZM3.99992 2.99998C4.26514 2.99998 4.51949 3.10534 4.70703 3.29287C4.89456 3.48041 4.99992 3.73476 4.99992 3.99998C5.00009 4.1135 4.98092 4.22622 4.94325 4.33331L3.66659 3.05665C3.77367 3.01897 3.8864 2.99981 3.99992 2.99998ZM3.99992 1.49998C5.66659 1.49998 7.08992 2.53665 7.66659 3.99998C7.39438 4.69096 6.93211 5.29075 6.33325 5.72998L5.85992 5.25331C6.3209 4.93446 6.69268 4.50301 6.93992 3.99998C6.67047 3.44993 6.2521 2.98652 5.73237 2.66243C5.21265 2.33834 4.61242 2.16657 3.99992 2.16665C3.63659 2.16665 3.27992 2.22665 2.94659 2.33331L2.43325 1.82331C2.91325 1.61665 3.44325 1.49998 3.99992 1.49998ZM1.05992 3.99998C1.32937 4.55002 1.74774 5.01344 2.26746 5.33753C2.78719 5.66162 3.38742 5.83339 3.99992 5.83331C4.22992 5.83331 4.45659 5.80998 4.66659 5.76331L3.90659 4.99998C3.67464 4.97512 3.45819 4.8716 3.29324 4.70665C3.12829 4.5417 3.02478 4.32526 2.99992 4.09331L1.86659 2.95665C1.53659 3.23998 1.25992 3.59331 1.05992 3.99998Z" fill="black"/>
</svg>
