<svg width="26" height="24" viewBox="0 0 26 24" fill="none" xmlns="http://www.w3.org/2000/svg">
<g clip-path="url(#clip0_109_1246)">
<path d="M25.5 12C25.5 5.37262 19.9035 0 13 0C6.09648 0 0.5 5.37253 0.5 12C0.5 17.9895 5.07109 22.954 11.0469 23.8542V15.4687H7.87305V12H11.0469V9.35625C11.0469 6.34875 12.9131 4.6875 15.7683 4.6875C17.1359 4.6875 18.5664 4.92187 18.5664 4.92187V7.875H16.9902C15.4373 7.875 14.9531 8.80003 14.9531 9.74906V12H18.4199L17.8657 15.4687H14.9531V23.8542C20.9289 22.954 25.5 17.9896 25.5 12Z" fill="#1877F2"/>
<path d="M17.8657 15.4688L18.4199 12H14.9531V9.74906C14.9531 8.79994 15.4374 7.875 16.9902 7.875H18.5664V4.92188C18.5664 4.92188 17.1359 4.6875 15.7683 4.6875C12.9131 4.6875 11.0469 6.34875 11.0469 9.35625V12H7.87305V15.4688H11.0469V23.8542C11.693 23.9514 12.346 24.0002 13 24C13.654 24.0002 14.307 23.9514 14.9531 23.8542V15.4688H17.8657Z" fill="white"/>
</g>
<defs>
<clipPath id="clip0_109_1246">
<rect width="25" height="24" fill="white" transform="translate(0.5)"/>
</clipPath>
</defs>
</svg>
