<svg width="28" height="28" viewBox="0 0 28 28" fill="none" xmlns="http://www.w3.org/2000/svg">
<rect width="28" height="28" rx="8" fill="#003130"/>
<path d="M21.7499 10.3167H17.0999C16.7749 10.3167 16.5166 10.0584 16.5166 9.73336C16.5166 9.40836 16.7749 9.15002 17.0999 9.15002H21.7499C22.0749 9.15002 22.3333 9.40836 22.3333 9.73336C22.3333 10.0584 22.0749 10.3167 21.7499 10.3167Z" fill="white"/>
<path d="M9.34984 10.3167H6.24984C5.92484 10.3167 5.6665 10.0584 5.6665 9.73336C5.6665 9.40836 5.92484 9.15002 6.24984 9.15002H9.34984C9.67484 9.15002 9.93317 9.40836 9.93317 9.73336C9.93317 10.0584 9.6665 10.3167 9.34984 10.3167Z" fill="white"/>
<path d="M12.4499 13.025C14.2678 13.025 15.7415 11.5513 15.7415 9.73332C15.7415 7.91538 14.2678 6.44165 12.4499 6.44165C10.6319 6.44165 9.1582 7.91538 9.1582 9.73332C9.1582 11.5513 10.6319 13.025 12.4499 13.025Z" fill="white"/>
<path d="M21.7502 18.8417H18.6502C18.3252 18.8417 18.0669 18.5834 18.0669 18.2584C18.0669 17.9334 18.3252 17.675 18.6502 17.675H21.7502C22.0752 17.675 22.3336 17.9334 22.3336 18.2584C22.3336 18.5834 22.0752 18.8417 21.7502 18.8417Z" fill="white"/>
<path d="M10.8998 18.8417H6.24984C5.92484 18.8417 5.6665 18.5834 5.6665 18.2584C5.6665 17.9334 5.92484 17.675 6.24984 17.675H10.8998C11.2248 17.675 11.4832 17.9334 11.4832 18.2584C11.4832 18.5834 11.2165 18.8417 10.8998 18.8417Z" fill="white"/>
<path d="M15.55 21.5583C17.3679 21.5583 18.8416 20.0846 18.8416 18.2666C18.8416 16.4487 17.3679 14.975 15.55 14.975C13.732 14.975 12.2583 16.4487 12.2583 18.2666C12.2583 20.0846 13.732 21.5583 15.55 21.5583Z" fill="white"/>
</svg>
