<svg width="20" height="20" viewBox="0 0 20 20" fill="none" xmlns="http://www.w3.org/2000/svg">
<g clip-path="url(#clip0_2_256)">
<path fill-rule="evenodd" clip-rule="evenodd" d="M10 2.50004C6.59919 2.50004 3.79336 5.04629 3.38461 8.33629C3.51544 8.33296 3.65211 8.33337 3.79544 8.33337H3.94503C4.14044 8.33254 4.38086 8.33171 4.59794 8.39046C5.17294 8.54421 5.62211 8.99337 5.77628 9.56879C5.83461 9.78588 5.83378 10.0259 5.83336 10.2213V13.9455C5.83378 14.1409 5.83461 14.3809 5.77628 14.598C5.62211 15.1734 5.17294 15.6225 4.59794 15.7763C4.38086 15.835 4.14044 15.8342 3.94503 15.8334H3.79544C3.37253 15.8338 3.00753 15.8342 2.68586 15.7484C1.82336 15.5171 1.14961 14.843 0.91836 13.9805C0.83211 13.6592 0.832527 13.2942 0.832944 12.8713V11.2955C0.832527 10.8725 0.83211 10.5075 0.91836 10.1863C1.04669 9.70754 1.31128 9.28712 1.66878 8.96754C1.77461 4.45712 5.46378 0.833374 10 0.833374C14.5359 0.833374 18.225 4.45712 18.3309 8.96754C18.6888 9.28712 18.9529 9.70754 19.0813 10.1863C19.1675 10.5075 19.1671 10.8725 19.1667 11.2955V12.8713C19.1671 13.2942 19.1675 13.6592 19.0813 13.9805C18.85 14.843 18.1763 15.5171 17.3138 15.7484C17.0925 15.8071 16.8504 15.8255 16.5838 15.8313C16.1984 17.7342 14.5167 19.1667 12.5 19.1667H10.3429C9.69336 19.1667 9.16669 18.64 9.16669 17.9905V17.9167C9.16669 17.2263 9.72628 16.6667 10.4167 16.6667H11.25C11.7942 16.6667 12.2571 17.0146 12.4288 17.5H12.5C13.6846 17.5 14.6767 16.6763 14.9346 15.5705C14.5896 15.3496 14.3321 15.0055 14.2234 14.598C14.165 14.3809 14.1659 14.1409 14.1663 13.9455L14.1667 13.8888V10.278L14.1663 10.2213C14.1659 10.0259 14.165 9.78588 14.2234 9.56879C14.3775 8.99337 14.8267 8.54421 15.4021 8.39046C15.6192 8.33171 15.8592 8.33254 16.0546 8.33337H16.2042C16.3475 8.33337 16.4846 8.33296 16.6154 8.33629C16.2067 5.04629 13.4004 2.50004 10 2.50004ZM3.88878 10C4.02544 10 4.10044 10.0005 4.15461 10.003L4.16336 10.0034L4.16378 10.0117C4.16628 10.0663 4.16669 10.1413 4.16669 10.278V13.8888C4.16669 14.0255 4.16628 14.1005 4.16378 14.155L4.16336 14.1634L4.15461 14.1638C4.10044 14.1667 4.02544 14.1667 3.88878 14.1667C3.31836 14.1667 3.19669 14.1592 3.11753 14.1384C2.83003 14.0613 2.60544 13.8367 2.52794 13.5492C2.50711 13.4696 2.50003 13.348 2.50003 12.778V11.3888C2.50003 10.8188 2.50711 10.6971 2.52794 10.6175C2.60544 10.33 2.83003 10.1055 3.11753 10.0284C3.19669 10.0075 3.31836 10 3.88878 10ZM16.1109 10C15.9742 10 15.8996 10.0005 15.845 10.003L15.8363 10.0034L15.8359 10.0117C15.8334 10.0663 15.8334 10.1413 15.8334 10.278V13.8888C15.8334 14.0255 15.8334 14.1005 15.8359 14.155L15.8363 14.1634L15.845 14.1638C15.8996 14.1667 15.9742 14.1667 16.1109 14.1667C16.6813 14.1667 16.8029 14.1592 16.8825 14.1384C17.1696 14.0613 17.3942 13.8367 17.4717 13.5492C17.4925 13.4696 17.5 13.348 17.5 12.778V11.3888C17.5 10.8188 17.4925 10.6971 17.4717 10.6175C17.3942 10.33 17.1696 10.1055 16.8825 10.0284C16.8029 10.0075 16.6813 10 16.1109 10Z" fill="white"/>
</g>
<defs>
<clipPath id="clip0_2_256">
<rect width="20" height="20" fill="white"/>
</clipPath>
</defs>
</svg>
