<svg width="20" height="20" viewBox="0 0 20 20" fill="none" xmlns="http://www.w3.org/2000/svg">
<path fill-rule="evenodd" clip-rule="evenodd" d="M13.2077 2.08387C13.7335 2.08387 14.2585 2.15804 14.7577 2.32554C17.8335 3.32554 18.9419 6.70054 18.016 9.65054C17.491 11.158 16.6327 12.5339 15.5085 13.658C13.8994 15.2164 12.1335 16.5997 10.2327 17.7914L10.0244 17.9172L9.8077 17.783C7.9002 16.5997 6.12436 15.2164 4.5002 13.6497C3.38353 12.5255 2.52436 11.158 1.99103 9.65054C1.04936 6.70054 2.1577 3.32554 5.26686 2.30804C5.50853 2.22471 5.7577 2.16637 6.0077 2.13387H6.1077C6.34186 2.09971 6.57436 2.08387 6.8077 2.08387H6.89936C7.42436 2.09971 7.9327 2.19137 8.4252 2.35887H8.47436C8.5077 2.37471 8.5327 2.39221 8.54936 2.40804C8.73353 2.46721 8.9077 2.53387 9.07436 2.62554L9.39103 2.76721C9.46755 2.80802 9.55343 2.87037 9.62766 2.92426C9.67469 2.95841 9.71704 2.98916 9.74936 3.00887C9.76296 3.0169 9.77679 3.02497 9.79072 3.0331C9.86217 3.07481 9.9366 3.11826 9.99936 3.16637C10.9252 2.45887 12.0494 2.07554 13.2077 2.08387ZM15.4244 8.08387C15.766 8.07471 16.0577 7.80054 16.0827 7.44971V7.35054C16.1077 6.18304 15.4002 5.12554 14.3244 4.71721C13.9827 4.59971 13.6077 4.78387 13.4827 5.13387C13.366 5.48387 13.5494 5.86721 13.8994 5.99137C14.4335 6.19137 14.791 6.71721 14.791 7.29971V7.32554C14.7752 7.51637 14.8327 7.70054 14.9494 7.84221C15.066 7.98387 15.241 8.06637 15.4244 8.08387Z" fill="#D90429"/>
</svg>
