<svg width="25" height="24" viewBox="0 0 25 24" fill="none" xmlns="http://www.w3.org/2000/svg">
<g clip-path="url(#clip0_281_1193)">
<g clip-path="url(#clip1_281_1193)">
<path d="M5.455 2.025C5.59583 1.86035 5.77066 1.72817 5.96745 1.63754C6.16425 1.54691 6.37834 1.49999 6.595 1.5H19.405C19.6217 1.49999 19.8358 1.54691 20.0325 1.63754C20.2293 1.72817 20.4042 1.86035 20.545 2.025L24.4585 6.591C24.8079 6.99875 25 7.51802 25 8.055V8.4375C25.0001 9.17996 24.7682 9.9039 24.3367 10.5081C23.9053 11.1124 23.2958 11.5667 22.5935 11.8076C21.8912 12.0485 21.1312 12.064 20.4197 11.8519C19.7082 11.6398 19.0807 11.2107 18.625 10.6245C18.2923 11.0532 17.8658 11.4001 17.3783 11.6385C16.8908 11.877 16.3552 12.0006 15.8125 12C15.2698 12.0006 14.7342 11.877 14.2467 11.6385C13.7592 11.4001 13.3327 11.0532 13 10.6245C12.6673 11.0532 12.2408 11.4001 11.7533 11.6385C11.2658 11.877 10.7302 12.0006 10.1875 12C9.64481 12.0006 9.10919 11.877 8.62168 11.6385C8.13416 11.4001 7.70771 11.0532 7.375 10.6245C6.91929 11.2107 6.29182 11.6398 5.58031 11.8519C4.86879 12.064 4.10877 12.0485 3.40649 11.8076C2.7042 11.5667 2.09473 11.1124 1.66327 10.5081C1.23181 9.9039 0.999918 9.17996 1 8.4375V8.055C1.00002 7.51802 1.19208 6.99875 1.5415 6.591L5.455 2.025ZM8.125 8.4375C8.125 8.98451 8.3423 9.50911 8.72909 9.89591C9.11589 10.2827 9.64049 10.5 10.1875 10.5C10.7345 10.5 11.2591 10.2827 11.6459 9.89591C12.0327 9.50911 12.25 8.98451 12.25 8.4375C12.25 8.23859 12.329 8.04782 12.4697 7.90717C12.6103 7.76652 12.8011 7.6875 13 7.6875C13.1989 7.6875 13.3897 7.76652 13.5303 7.90717C13.671 8.04782 13.75 8.23859 13.75 8.4375C13.75 8.98451 13.9673 9.50911 14.3541 9.89591C14.7409 10.2827 15.2655 10.5 15.8125 10.5C16.3595 10.5 16.8841 10.2827 17.2709 9.89591C17.6577 9.50911 17.875 8.98451 17.875 8.4375C17.875 8.23859 17.954 8.04782 18.0947 7.90717C18.2353 7.76652 18.4261 7.6875 18.625 7.6875C18.8239 7.6875 19.0147 7.76652 19.1553 7.90717C19.296 8.04782 19.375 8.23859 19.375 8.4375C19.375 8.98451 19.5923 9.50911 19.9791 9.89591C20.3659 10.2827 20.8905 10.5 21.4375 10.5C21.9845 10.5 22.5091 10.2827 22.8959 9.89591C23.2827 9.50911 23.5 8.98451 23.5 8.4375V8.055C23.5 7.87624 23.4362 7.70336 23.32 7.5675L19.405 3H6.595L2.68 7.5675C2.56382 7.70336 2.49999 7.87624 2.5 8.055V8.4375C2.5 8.98451 2.7173 9.50911 3.10409 9.89591C3.49089 10.2827 4.01549 10.5 4.5625 10.5C5.10951 10.5 5.63411 10.2827 6.02091 9.89591C6.4077 9.50911 6.625 8.98451 6.625 8.4375C6.625 8.23859 6.70402 8.04782 6.84467 7.90717C6.98532 7.76652 7.17609 7.6875 7.375 7.6875C7.57391 7.6875 7.76468 7.76652 7.90533 7.90717C8.04598 8.04782 8.125 8.23859 8.125 8.4375ZM3.25 12.75C3.44891 12.75 3.63968 12.829 3.78033 12.9697C3.92098 13.1103 4 13.3011 4 13.5V22.5H5.5V15C5.5 14.6022 5.65804 14.2206 5.93934 13.9393C6.22064 13.658 6.60218 13.5 7 13.5H11.5C11.8978 13.5 12.2794 13.658 12.5607 13.9393C12.842 14.2206 13 14.6022 13 15V22.5H22V13.5C22 13.3011 22.079 13.1103 22.2197 12.9697C22.3603 12.829 22.5511 12.75 22.75 12.75C22.9489 12.75 23.1397 12.829 23.2803 12.9697C23.421 13.1103 23.5 13.3011 23.5 13.5V22.5H24.25C24.4489 22.5 24.6397 22.579 24.7803 22.7197C24.921 22.8603 25 23.0511 25 23.25C25 23.4489 24.921 23.6397 24.7803 23.7803C24.6397 23.921 24.4489 24 24.25 24H1.75C1.55109 24 1.36032 23.921 1.21967 23.7803C1.07902 23.6397 1 23.4489 1 23.25C1 23.0511 1.07902 22.8603 1.21967 22.7197C1.36032 22.579 1.55109 22.5 1.75 22.5H2.5V13.5C2.5 13.3011 2.57902 13.1103 2.71967 12.9697C2.86032 12.829 3.05109 12.75 3.25 12.75ZM7 22.5H11.5V15H7V22.5ZM14.5 15C14.5 14.6022 14.658 14.2206 14.9393 13.9393C15.2206 13.658 15.6022 13.5 16 13.5H19C19.3978 13.5 19.7794 13.658 20.0607 13.9393C20.342 14.2206 20.5 14.6022 20.5 15V19.5C20.5 19.8978 20.342 20.2794 20.0607 20.5607C19.7794 20.842 19.3978 21 19 21H16C15.6022 21 15.2206 20.842 14.9393 20.5607C14.658 20.2794 14.5 19.8978 14.5 19.5V15ZM19 15H16V19.5H19V15Z" fill="white"/>
</g>
</g>
<defs>
<clipPath id="clip0_281_1193">
<rect width="24" height="24" fill="white" transform="translate(0.400024)"/>
</clipPath>
<clipPath id="clip1_281_1193">
<rect width="24" height="24" fill="white" transform="translate(1)"/>
</clipPath>
</defs>
</svg>
