<svg width="80" height="80" viewBox="0 0 80 80" fill="none" xmlns="http://www.w3.org/2000/svg">
<path d="M27.5 35C26.837 35 26.2011 35.2634 25.7322 35.7322C25.2634 36.2011 25 36.837 25 37.5C25 38.163 25.2634 38.7989 25.7322 39.2678C26.2011 39.7366 26.837 40 27.5 40H52.5C53.163 40 53.7989 39.7366 54.2678 39.2678C54.7366 38.7989 55 38.163 55 37.5C55 36.837 54.7366 36.2011 54.2678 35.7322C53.7989 35.2634 53.163 35 52.5 35H27.5ZM25 47.5C25 46.837 25.2634 46.2011 25.7322 45.7322C26.2011 45.2634 26.837 45 27.5 45H52.5C53.163 45 53.7989 45.2634 54.2678 45.7322C54.7366 46.2011 55 46.837 55 47.5C55 48.163 54.7366 48.7989 54.2678 49.2678C53.7989 49.7366 53.163 50 52.5 50H27.5C26.837 50 26.2011 49.7366 25.7322 49.2678C25.2634 48.7989 25 48.163 25 47.5ZM25 57.5C25 56.837 25.2634 56.2011 25.7322 55.7322C26.2011 55.2634 26.837 55 27.5 55H37.5C38.163 55 38.7989 55.2634 39.2678 55.7322C39.7366 56.2011 40 56.837 40 57.5C40 58.163 39.7366 58.7989 39.2678 59.2678C38.7989 59.7366 38.163 60 37.5 60H27.5C26.837 60 26.2011 59.7366 25.7322 59.2678C25.2634 58.7989 25 58.163 25 57.5Z" fill="#003130"/>
<path d="M47.5 0H20C17.3478 0 14.8043 1.05357 12.9289 2.92893C11.0536 4.8043 10 7.34784 10 10V70C10 72.6522 11.0536 75.1957 12.9289 77.0711C14.8043 78.9464 17.3478 80 20 80H60C62.6522 80 65.1957 78.9464 67.0711 77.0711C68.9464 75.1957 70 72.6522 70 70V22.5L47.5 0ZM47.5 5V15C47.5 16.9891 48.2902 18.8968 49.6967 20.3033C51.1032 21.7098 53.0109 22.5 55 22.5H65V70C65 71.3261 64.4732 72.5979 63.5355 73.5355C62.5979 74.4732 61.3261 75 60 75H20C18.6739 75 17.4021 74.4732 16.4645 73.5355C15.5268 72.5979 15 71.3261 15 70V10C15 8.67392 15.5268 7.40215 16.4645 6.46447C17.4021 5.52678 18.6739 5 20 5H47.5Z" fill="black"/>
</svg>
