<svg width="13" height="16" viewBox="0 0 13 16" fill="none" xmlns="http://www.w3.org/2000/svg">
<path d="M6.6875 9.125C6.13124 9.125 5.58747 8.96005 5.12496 8.65101C4.66245 8.34197 4.30196 7.90272 4.08909 7.3888C3.87622 6.87488 3.82052 6.30938 3.92904 5.76381C4.03756 5.21824 4.30543 4.7171 4.69876 4.32376C5.0921 3.93043 5.59324 3.66256 6.13881 3.55404C6.68438 3.44552 7.24988 3.50122 7.7638 3.71409C8.27772 3.92696 8.71697 4.28745 9.02601 4.74996C9.33505 5.21247 9.5 5.75624 9.5 6.3125C9.49911 7.05815 9.20251 7.773 8.67525 8.30025C8.148 8.82751 7.43315 9.12411 6.6875 9.125ZM6.6875 4.625C6.35375 4.625 6.02748 4.72397 5.74998 4.9094C5.47247 5.09482 5.25618 5.35837 5.12845 5.66672C5.00073 5.97507 4.96731 6.31437 5.03243 6.64172C5.09754 6.96906 5.25826 7.26974 5.49426 7.50574C5.73026 7.74175 6.03094 7.90246 6.35829 7.96758C6.68563 8.03269 7.02493 7.99927 7.33328 7.87155C7.64163 7.74383 7.90518 7.52753 8.09061 7.25003C8.27603 6.97252 8.375 6.64626 8.375 6.3125C8.37455 5.86509 8.19662 5.43612 7.88025 5.11975C7.56388 4.80338 7.13492 4.62545 6.6875 4.625Z" fill="#878787"/>
<path d="M6.68751 15.875L1.94226 10.2787C1.87632 10.1947 1.81107 10.1101 1.74651 10.025C0.935933 8.95725 0.498042 7.65306 0.500007 6.3125C0.500007 4.67147 1.1519 3.09766 2.31228 1.93728C3.47266 0.776896 5.04648 0.125 6.68751 0.125C8.32853 0.125 9.90235 0.776896 11.0627 1.93728C12.2231 3.09766 12.875 4.67147 12.875 6.3125C12.877 7.65245 12.4393 8.95605 11.6291 10.0233L11.6285 10.025C11.6285 10.025 11.4598 10.2466 11.4344 10.2764L6.68751 15.875ZM2.64426 9.34719C2.64538 9.34719 2.77588 9.52044 2.80569 9.55756L6.68751 14.1358L10.5744 9.55137C10.5991 9.52044 10.7308 9.34606 10.7313 9.3455C11.3935 8.47313 11.7513 7.4077 11.75 6.3125C11.75 4.96984 11.2166 3.68217 10.2672 2.73277C9.31783 1.78337 8.03016 1.25 6.68751 1.25C5.34485 1.25 4.05718 1.78337 3.10778 2.73277C2.15838 3.68217 1.62501 4.96984 1.62501 6.3125C1.62383 7.40838 1.98207 8.47442 2.64482 9.34719H2.64426Z" fill="#878787"/>
</svg>
