<svg width="57" height="61" viewBox="0 0 57 61" fill="none" xmlns="http://www.w3.org/2000/svg">
<g clip-path="url(#clip0_4_2414)">
<path d="M28.5265 1.10645L56.0819 20.8479L28.5265 46.7553L0.984039 20.8479L28.5265 1.10645Z" fill="#003130"/>
<path d="M28.5265 1.10645L56.0819 20.8479L28.533 41.6883L0.984039 20.8479L28.5265 1.10645Z" fill="#003130"/>
<path d="M56.0821 20.8478L53.8628 22.5253L28.5268 4.37066L3.19932 22.5253L0.982147 20.8478L28.5268 1.10632L56.0821 20.8478Z" fill="#003130"/>
<path d="M36.1141 40.4638L56.0816 59.3676V21.1671L36.1141 40.4638Z" fill="#003130"/>
<path d="M39.8514 40.1249L56.0819 59.3676V21.1671L39.8514 40.1249Z" fill="#003130"/>
<path d="M21.1905 40.5049L0.9841 59.3676H55.8365L35.5785 40.1249L28.5266 46.755L21.1905 40.5049Z" fill="#003130"/>
<path d="M1.26824 21.5277L21.1905 40.5049L0.9841 59.3677L1.26824 21.5277Z" fill="#003130"/>
<path d="M17.1479 40.1249L0.917297 59.3676V21.1671L17.1479 40.1249Z" fill="#003130"/>
<path d="M1.97437 59.0783L21.3843 42.9445L28.4104 49.5293L35.5419 43.2726L55.8366 59.6397L35.5785 40.1249L28.5266 46.755L21.1906 40.8136L1.97437 59.0783Z" fill="#003130"/>
<path d="M6.92284 7.36841C6.92284 7.36841 50.5086 7.15252 50.5086 7.36841V26.1902L28.5263 46.7564L6.31366 25.8598L6.92284 7.36841Z" fill="white"/>
<g style="mix-blend-mode:screen">
<path d="M50.2028 8.48294L9.58549 9.90137V25.0659L28.4099 46.4093L6.57401 26.0244V7.27393L50.2028 7.34085V8.48294Z" fill="white"/>
</g>
<path d="M37.5349 8.23014H19.5177C19.1991 8.23014 18.9192 8.02288 18.8224 7.72062C18.7255 7.41621 18.8374 7.08589 19.0957 6.90238L28.1044 0.507564C28.3562 0.328371 28.6942 0.328371 28.9482 0.507564L37.9568 6.90022C38.2151 7.08373 38.327 7.41621 38.2302 7.71847C38.1333 8.02288 37.8535 8.22798 37.5349 8.22798V8.23014ZM21.8123 6.76637H35.2424L28.5284 2.00156L21.8145 6.76637H21.8123Z" fill="#003130"/>
<path d="M0.787744 60.3713C0.690877 60.3713 0.591858 60.3519 0.499296 60.3108C0.232374 60.1942 0.0580139 59.9309 0.0580139 59.6394V20.9056C0.0580139 20.6142 0.230222 20.3508 0.499296 20.2342C0.766218 20.1176 1.07619 20.1737 1.2893 20.3724L21.7928 39.7317C21.9391 39.8699 22.0231 40.062 22.0231 40.265C22.0231 40.4679 21.9391 40.66 21.7928 40.7982L1.2893 60.1727C1.15153 60.3022 0.970715 60.3713 0.787744 60.3713ZM1.51747 22.6004V57.9446L20.2278 40.265L1.51747 22.6004Z" fill="#003130"/>
<path d="M6.55885 27.0886C6.37588 27.0886 6.19722 27.0195 6.05945 26.89L0.288342 21.4386C0.141965 21.3004 0.0580139 21.1083 0.0580139 20.9053V20.7931C0.0580139 20.5556 0.172102 20.3332 0.365835 20.195L6.13479 16.0995C6.35866 15.9419 6.64926 15.9203 6.89035 16.0477C7.1336 16.1729 7.28428 16.4234 7.28428 16.6975V26.3545C7.28428 26.646 7.11207 26.9094 6.843 27.026C6.75043 27.067 6.65141 27.0864 6.55455 27.0864L6.55885 27.0886ZM1.8705 20.9226L5.82912 24.6619V18.1138L1.8705 20.9226Z" fill="#003130"/>
<path d="M0.790003 21.6374C0.602727 21.6374 0.415451 21.5661 0.27338 21.4215L0.213107 21.361C-0.0710357 21.0739 -0.0710357 20.6119 0.213107 20.3269C0.499402 20.0419 0.960058 20.0419 1.2442 20.3269L1.30447 20.3873C1.58862 20.6745 1.58862 21.1365 1.30447 21.4215C1.1624 21.564 0.975126 21.6352 0.790003 21.6352V21.6374Z" fill="#003130"/>
<path d="M50.5001 26.9768C50.3064 26.9768 50.1126 26.8991 49.9684 26.7458C49.6929 26.4522 49.7058 25.988 49.9985 25.7117L55.7158 20.3143C56.0086 20.0379 56.4714 20.0509 56.7469 20.3445C57.0224 20.6381 57.0095 21.1023 56.7168 21.3787L50.9995 26.776C50.8574 26.9099 50.6788 26.9747 50.5001 26.9747V26.9768Z" fill="#003130"/>
<path d="M35.617 41.0334C35.4534 41.0334 35.2876 40.9772 35.152 40.865L35.1068 40.8283C34.7968 40.5713 34.7538 40.1093 35.0099 39.7984C35.2661 39.4875 35.7268 39.4444 36.0367 39.7013L36.0819 39.738C36.3919 39.9949 36.435 40.4569 36.1788 40.7678C36.0346 40.9427 35.8258 41.0334 35.617 41.0334Z" fill="#003130"/>
<path d="M56.2689 60.371H0.790025C0.490814 60.371 0.22174 60.1875 0.111958 59.909C0.0021752 59.6305 0.0710583 59.3131 0.28847 59.1058L20.7919 39.7314C21.0739 39.4658 21.5109 39.4658 21.7929 39.7314L28.4724 46.0485L35.1153 39.7681C35.3952 39.5025 35.8321 39.5025 36.1141 39.7659L45.1615 48.2398L56.7683 59.1015C56.9878 59.3066 57.0589 59.6261 56.9491 59.9046C56.8393 60.1853 56.5702 60.3688 56.271 60.3688L56.2689 60.371ZM2.62619 58.9072H54.4176L35.619 41.3053L28.974 47.5878C28.692 47.8534 28.2528 47.8534 27.973 47.5878L21.2935 41.2707L2.62619 58.9072Z" fill="#003130"/>
<path d="M56.2691 60.3707C56.0883 60.3707 55.9097 60.3038 55.7719 60.1743L44.1651 49.3126L35.1177 40.8387C34.9692 40.7005 34.8874 40.5062 34.8853 40.3054C34.8853 40.1025 34.9692 39.9104 35.1156 39.77L35.3545 39.5455L49.7683 25.929V16.6995C49.7683 16.4253 49.9211 16.1748 50.1622 16.0496C50.4033 15.9244 50.6961 15.9438 50.9178 16.1014L56.6867 20.197C56.8805 20.333 56.9946 20.5575 56.9946 20.795V59.641C56.9946 59.9325 56.8224 60.1959 56.5554 60.3125C56.4629 60.3535 56.3639 60.3729 56.2648 60.3729L56.2691 60.3707ZM36.6827 40.3011L55.5394 57.9549V21.1728L51.2278 18.1136V26.2442C51.2278 26.445 51.1438 26.6393 50.9974 26.7774L36.6805 40.3033L36.6827 40.3011Z" fill="#003130"/>
<path d="M28.4722 47.7865C28.2913 47.7865 28.1127 47.7195 27.9728 47.5878L20.7917 40.7979L6.05934 26.8878C5.91296 26.7496 5.82901 26.5575 5.82901 26.3545V7.49824C5.82901 7.09452 6.1562 6.76636 6.55874 6.76636H50.4997C50.9022 6.76636 51.2294 7.09452 51.2294 7.49824V26.2444C51.2294 26.4452 51.1455 26.6395 50.9991 26.7777L28.9737 47.59C28.8338 47.7217 28.653 47.7886 28.4743 47.7886L28.4722 47.7865ZM7.28847 26.0393L21.7927 39.7314L28.4722 46.0485L49.7678 25.9271V8.23013H7.28847V26.0393Z" fill="#003130"/>
</g>
<defs>
<clipPath id="clip0_4_2414">
<rect width="57" height="59.9997" fill="white" transform="translate(0 0.373169)"/>
</clipPath>
</defs>
</svg>
