<svg width="19" height="20" viewBox="0 0 19 20" fill="none" xmlns="http://www.w3.org/2000/svg">
<path fill-rule="evenodd" clip-rule="evenodd" d="M2.22146 1.15474C2.42845 0.948038 2.67701 0.787695 2.95065 0.684331C3.2243 0.580967 3.51678 0.536943 3.80873 0.555177C4.10067 0.573411 4.38541 0.653486 4.64406 0.790096C4.90272 0.926706 5.1294 1.11673 5.30907 1.34758L7.43254 4.07577C7.82174 4.57621 7.95897 5.22809 7.80518 5.84329L7.15808 8.43424C7.12486 8.56845 7.12678 8.70895 7.16367 8.8422C7.20055 8.97545 7.27115 9.09694 7.36865 9.19496L10.2753 12.1018C10.3734 12.1995 10.4951 12.2702 10.6285 12.3071C10.762 12.344 10.9027 12.3458 11.0371 12.3124L13.6267 11.6652C13.9303 11.5898 14.247 11.5841 14.5532 11.6486C14.8593 11.7132 15.1468 11.8463 15.3941 12.0379L18.122 14.1604C19.1027 14.9234 19.1926 16.3727 18.3149 17.2494L17.0917 18.4727C16.2162 19.3482 14.9079 19.7327 13.6882 19.3032C10.5659 18.206 7.73129 16.4186 5.39543 14.074C3.05118 11.7383 1.26389 8.90389 0.166607 5.78177C-0.261636 4.5632 0.122836 3.25352 0.998249 2.37804L2.22146 1.15474Z" fill="white"/>
</svg>
