<svg width="26" height="27" viewBox="0 0 26 27" fill="none" xmlns="http://www.w3.org/2000/svg">
<g clip-path="url(#clip0_2_1546)">
<path fill-rule="evenodd" clip-rule="evenodd" d="M3.45096 1.76747C3.72991 1.48893 4.06488 1.27287 4.43365 1.13358C4.80242 0.994294 5.19658 0.934971 5.59002 0.959542C5.98345 0.984112 6.36717 1.09202 6.71575 1.2761C7.06433 1.46019 7.3698 1.71625 7.61193 2.02733L10.4736 5.70365C10.9981 6.37801 11.183 7.25644 10.9758 8.08544L10.1037 11.5768C10.059 11.7577 10.0616 11.947 10.1113 12.1266C10.161 12.3061 10.2561 12.4698 10.3875 12.6019L14.3046 16.519C14.4368 16.6506 14.6008 16.7459 14.7806 16.7957C14.9605 16.8454 15.1502 16.8478 15.3312 16.8028L18.821 15.9307C19.2302 15.829 19.6571 15.8214 20.0696 15.9083C20.4821 15.9953 20.8696 16.1747 21.2028 16.4329L24.8792 19.293C26.2008 20.3212 26.3219 22.2742 25.139 23.4555L23.4906 25.104C22.3108 26.2837 20.5476 26.8018 18.9039 26.2231C14.6962 24.7446 10.8762 22.336 7.72831 19.1766C4.56912 16.0291 2.16051 12.2097 0.681767 8.00254C0.104652 6.36047 0.62278 4.59565 1.80252 3.41591L3.45096 1.76747Z" fill="#FFDD55"/>
</g>
<defs>
<clipPath id="clip0_2_1546">
<rect width="25.5079" height="25.5079" fill="white" transform="translate(0.445068 0.952881)"/>
</clipPath>
</defs>
</svg>
