<svg width="30" height="30" viewBox="0 0 30 30" fill="none" xmlns="http://www.w3.org/2000/svg">
<path d="M20.5 1.875C20.9973 1.875 21.4742 2.07254 21.8258 2.42417C22.1775 2.77581 22.375 3.25272 22.375 3.75V26.25C22.375 26.7473 22.1775 27.2242 21.8258 27.5758C21.4742 27.9275 20.9973 28.125 20.5 28.125H9.25C8.75272 28.125 8.27581 27.9275 7.92418 27.5758C7.57254 27.2242 7.375 26.7473 7.375 26.25V3.75C7.375 3.25272 7.57254 2.77581 7.92418 2.42417C8.27581 2.07254 8.75272 1.875 9.25 1.875H20.5ZM9.25 0C8.25544 0 7.30161 0.395088 6.59835 1.09835C5.89509 1.80161 5.5 2.75544 5.5 3.75V26.25C5.5 27.2446 5.89509 28.1984 6.59835 28.9016C7.30161 29.6049 8.25544 30 9.25 30H20.5C21.4946 30 22.4484 29.6049 23.1516 28.9016C23.8549 28.1984 24.25 27.2446 24.25 26.25V3.75C24.25 2.75544 23.8549 1.80161 23.1516 1.09835C22.4484 0.395088 21.4946 0 20.5 0L9.25 0Z" fill="#003130"/>
<path d="M15 26.25C15.4973 26.25 15.9742 26.0525 16.3258 25.7008C16.6775 25.3492 16.875 24.8723 16.875 24.375C16.875 23.8777 16.6775 23.4008 16.3258 23.0492C15.9742 22.6975 15.4973 22.5 15 22.5C14.5027 22.5 14.0258 22.6975 13.6742 23.0492C13.3225 23.4008 13.125 23.8777 13.125 24.375C13.125 24.8723 13.3225 25.3492 13.6742 25.7008C14.0258 26.0525 14.5027 26.25 15 26.25Z" fill="#003130"/>
</svg>
