<svg width="26" height="27" viewBox="0 0 26 27" fill="none" xmlns="http://www.w3.org/2000/svg">
<path d="M19.8165 1.94452C20.9886 0.742119 22.9251 0.726564 24.1165 1.90998C25.2753 3.06098 25.2969 4.92039 24.1651 6.09761L20.7895 9.60868C20.5249 9.88388 20.3926 10.0215 20.3111 10.1826C20.2389 10.3253 20.196 10.4808 20.1847 10.6401C20.172 10.82 20.2151 11.0054 20.3012 11.3762L22.4004 20.411C22.4888 20.7916 22.533 20.9819 22.5187 21.166C22.5061 21.3289 22.4603 21.4876 22.3841 21.6324C22.2979 21.796 22.1589 21.9341 21.8808 22.2103L21.4304 22.6577C20.694 23.3891 20.3258 23.7548 19.949 23.821C19.62 23.8788 19.2815 23.7995 19.0132 23.6016C18.7059 23.375 18.5413 22.8843 18.212 21.9031L15.7704 14.6278L11.7064 18.6645C11.4638 18.9054 11.3425 19.0259 11.2614 19.1678C11.1895 19.2934 11.1409 19.4309 11.118 19.5737C11.0921 19.7348 11.1111 19.9042 11.149 20.2428L11.3721 22.2379C11.41 22.5766 11.429 22.7459 11.4031 22.907C11.3802 23.0498 11.3316 23.1873 11.2597 23.313C11.1786 23.4548 11.0573 23.5753 10.8147 23.8163L10.5748 24.0546C10.0001 24.6254 9.71273 24.9108 9.39341 24.9935C9.11333 25.066 8.8164 25.0368 8.55607 24.9111C8.25927 24.7679 8.03386 24.432 7.58303 23.7603L5.67777 20.9217C5.59722 20.8017 5.55695 20.7417 5.51019 20.6873C5.46866 20.639 5.42335 20.5939 5.37468 20.5527C5.31989 20.5063 5.25948 20.4663 5.13867 20.3862L2.28077 18.4938C1.60453 18.046 1.26641 17.8222 1.12218 17.5274C0.995678 17.2688 0.966276 16.9739 1.03927 16.6957C1.12249 16.3785 1.40983 16.0931 1.98453 15.5223L2.22446 15.284C2.46705 15.043 2.58834 14.9225 2.73118 14.8419C2.85773 14.7705 2.99615 14.7223 3.13987 14.6995C3.30209 14.6738 3.47258 14.6927 3.81355 14.7303L5.82216 14.952C6.16313 14.9896 6.33362 15.0084 6.49585 14.9827C6.63956 14.9599 6.77799 14.9117 6.90453 14.8403C7.04737 14.7597 7.16866 14.6392 7.41125 14.3983L11.4753 10.3617L4.15066 7.93658C3.16272 7.60948 2.66875 7.44594 2.4406 7.14077C2.24139 6.87429 2.16148 6.53808 2.21968 6.21124C2.28634 5.83695 2.65452 5.47125 3.39089 4.73984L3.84132 4.29245C4.11939 4.01626 4.25843 3.87816 4.42315 3.79262C4.56894 3.71691 4.7287 3.6714 4.89273 3.65885C5.07806 3.64467 5.26965 3.68859 5.65283 3.77642L14.7145 5.85347C15.0911 5.93978 15.2793 5.98294 15.4611 5.9701C15.6366 5.9577 15.8073 5.90759 15.9614 5.82323C16.121 5.73585 16.2554 5.59797 16.5242 5.3222L19.8165 1.94452Z" stroke="#FF8684" stroke-width="2" stroke-linecap="round" stroke-linejoin="round"/>
</svg>
