<svg width="23" height="23" viewBox="0 0 23 23" fill="none" xmlns="http://www.w3.org/2000/svg">
<g clip-path="url(#clip0_237_1386)">
<path d="M9.71012 15.3358L12.3314 13.7452L14.9526 15.3358L14.2581 12.3561L16.5881 10.3398L13.5188 10.0933L12.3314 7.27044L11.144 10.0933L8.07464 10.3398L10.4046 12.3561L9.71012 15.3358ZM12.3314 21.6537L9.32926 18.6964H5.16214V14.5293L2.20483 11.5272L5.16214 8.52506V4.35794H9.32926L12.3314 1.40063L15.3335 4.35794H19.5006V8.52506L22.4579 11.5272L19.5006 14.5293V18.6964H15.3335L12.3314 21.6537ZM12.3314 19.1445L14.5718 16.9041H17.7083V13.7676L19.9487 11.5272L17.7083 9.28679V6.15025H14.5718L12.3314 3.90987L10.091 6.15025H6.95445V9.28679L4.71406 11.5272L6.95445 13.7676V16.9041H10.091L12.3314 19.1445Z" fill="#AAAAAA"/>
</g>
<defs>
<clipPath id="clip0_237_1386">
<rect width="21.5077" height="21.5077" fill="white" transform="translate(0.745117 0.773193)"/>
</clipPath>
</defs>
</svg>
