<svg width="20" height="21" viewBox="0 0 20 21" fill="none" xmlns="http://www.w3.org/2000/svg">
<path d="M17.7364 7.39649L12.7774 6.67579L10.5606 2.18165C10.5001 2.0586 10.4005 1.95899 10.2774 1.89844C9.96882 1.7461 9.59382 1.87305 9.43952 2.18165L7.22272 6.67579L2.26374 7.39649C2.12702 7.41602 2.00202 7.48048 1.90632 7.57813C1.79062 7.69705 1.72686 7.85704 1.72906 8.02294C1.73126 8.18884 1.79923 8.34709 1.91804 8.4629L5.50593 11.9609L4.65827 16.9004C4.63839 17.0153 4.65111 17.1335 4.69497 17.2415C4.73884 17.3496 4.8121 17.4432 4.90645 17.5117C5.0008 17.5802 5.11246 17.6209 5.22878 17.6292C5.34509 17.6375 5.4614 17.613 5.56452 17.5586L10.0001 15.2266L14.4356 17.5586C14.5567 17.6231 14.6973 17.6445 14.8321 17.6211C15.1719 17.5625 15.4005 17.2402 15.3419 16.9004L14.4942 11.9609L18.0821 8.4629C18.1798 8.3672 18.2442 8.24219 18.2637 8.10548C18.3165 7.76368 18.0782 7.44727 17.7364 7.39649Z" fill="#FFD33C"/>
</svg>
