<svg width="19" height="19" viewBox="0 0 19 19" fill="none" xmlns="http://www.w3.org/2000/svg">
<path d="M1.00003 7.24602L1.00004 7.24557C1.00082 7.19535 1.01669 7.14666 1.04643 7.10484C1.07582 7.06354 1.11703 7.03211 1.16463 7.0147C1.16471 7.01467 1.16479 7.01464 1.16487 7.01461L17.6645 1.01476L17.665 1.01455C17.7098 0.998209 17.7583 0.995002 17.8048 1.0053C17.8513 1.0156 17.8939 1.03898 17.9276 1.07268C17.9613 1.10638 17.9846 1.14901 17.9949 1.19554C18.0052 1.24207 18.0019 1.29055 17.9855 1.3353L17.9852 1.33624L11.9852 17.8362C11.9679 17.8838 11.9366 17.925 11.8953 17.9543C11.8548 17.9832 11.8067 17.9993 11.7571 18.0006H11.7501H11.7499C11.6999 18.0006 11.6511 17.9857 11.6097 17.9576C11.5683 17.9296 11.5362 17.8898 11.5177 17.8434L11.5176 17.8432L8.63684 10.6417L8.55726 10.4427L8.35832 10.3631L1.15757 7.48238L1.15728 7.48227C1.11021 7.46347 1.06997 7.43081 1.04189 7.38862C1.0138 7.34643 0.999206 7.29669 1.00003 7.24602Z" stroke="#003130"/>
</svg>
