<svg width="22" height="23" viewBox="0 0 22 23" fill="none" xmlns="http://www.w3.org/2000/svg">
<g clip-path="url(#clip0_237_1381)">
<path d="M11.0067 3.1327C11.2935 2.37634 12.3787 2.37634 12.6664 3.1327L14.5214 8.27124C14.5861 8.43863 14.7001 8.58246 14.8483 8.68374C14.9964 8.78501 15.1718 8.83898 15.3513 8.83851H19.91C20.7524 8.83851 21.1198 9.88701 20.4576 10.4005L17.2135 13.3193C17.0682 13.431 16.962 13.5859 16.9101 13.7617C16.8583 13.9375 16.8635 14.1252 16.9249 14.2979L18.1096 19.319C18.3982 20.1256 17.4644 20.8183 16.7582 20.3218L12.3518 17.5258C12.2009 17.4198 12.021 17.3629 11.8366 17.3629C11.6521 17.3629 11.4722 17.4198 11.3213 17.5258L6.91488 20.3218C6.20961 20.8183 5.27492 20.1247 5.56348 19.319L6.7482 14.2979C6.80965 14.1252 6.81483 13.9375 6.76299 13.7617C6.71115 13.5859 6.60495 13.431 6.45963 13.3193L3.21556 10.4005C2.5524 9.88701 2.92162 8.83851 3.76221 8.83851H8.32094C8.50044 8.8391 8.67588 8.78519 8.82406 8.68389C8.97224 8.5826 9.08617 8.4387 9.15078 8.27124L11.0058 3.1327H11.0067Z" stroke="#AAAAAA" stroke-width="1.79231" stroke-linecap="round" stroke-linejoin="round"/>
</g>
<defs>
<clipPath id="clip0_237_1381">
<rect width="21.5077" height="21.5077" fill="white" transform="translate(0.249023 0.773193)"/>
</clipPath>
</defs>
</svg>
