<svg width="107" height="107" viewBox="0 0 107 107" fill="none" xmlns="http://www.w3.org/2000/svg">
<rect width="107" height="107" rx="53.5" fill="#F2FBF0"/>
<rect width="107" height="107" rx="53.5" fill="#F2FBF0"/>
<rect x="6" y="6" width="95" height="95" rx="47.5" fill="#D9F9D4"/>
<rect x="13" y="13" width="81" height="81" rx="40.5" fill="#B4F1AA"/>
<rect x="20" y="20" width="67" height="67" rx="33.5" fill="#45CD81"/>
<g clip-path="url(#clip0_530_966)">
<path fill-rule="evenodd" clip-rule="evenodd" d="M53.5371 39.1229C53.6781 39.0424 53.8376 39 54 39C54.1624 39 54.3219 39.0424 54.4629 39.1229L67.5296 46.5896C67.6725 46.6712 67.7912 46.7891 67.8738 46.9313C67.9564 47.0736 67.9999 47.2352 68 47.3997V48.7437C68.0001 52.8615 66.6586 56.8673 64.1786 60.1545C61.6987 63.4418 58.2153 65.8317 54.2557 66.9624C54.0886 67.01 53.9114 67.01 53.7443 66.9624C49.785 65.8311 46.302 63.4411 43.8221 60.154C41.3423 56.8668 40.0006 52.8614 40 48.7437V47.3997C40.0001 47.2352 40.0436 47.0736 40.1262 46.9313C40.2088 46.7891 40.3275 46.6712 40.4704 46.5896L53.5371 39.1229ZM53.2011 58.9936L61.2613 48.9154L59.8053 47.7506L52.9323 56.3392L48.064 52.2829L46.8693 53.7165L53.2011 58.9936Z" fill="#F9F9FE"/>
</g>
<defs>
<clipPath id="clip0_530_966">
<rect width="28" height="28" fill="white" transform="translate(40 39)"/>
</clipPath>
</defs>
</svg>
