<svg width="27" height="27" viewBox="0 0 27 27" fill="none" xmlns="http://www.w3.org/2000/svg">
<g clip-path="url(#clip0_2_1555)">
<path d="M14.0317 1.49014C13.9778 1.33295 13.8762 1.19652 13.741 1.09993C13.6058 1.00334 13.4438 0.951416 13.2776 0.951416C13.1114 0.951416 12.9494 1.00334 12.8142 1.09993C12.679 1.19652 12.5774 1.33295 12.5235 1.49014L11.61 4.14136H3.71216C3.28934 4.14136 2.88384 4.30932 2.58486 4.6083C2.28588 4.90728 2.11792 5.31278 2.11792 5.7356V16.8953C2.11792 17.3181 2.28588 17.7236 2.58486 18.0226C2.88384 18.3216 3.28934 18.4895 3.71216 18.4895H6.66151L4.55233 24.6066C4.48341 24.8066 4.49676 25.0258 4.58944 25.216C4.68212 25.4061 4.84655 25.5516 5.04654 25.6206C5.24653 25.6895 5.46571 25.6761 5.65586 25.5835C5.84601 25.4908 5.99156 25.3263 6.06048 25.1264L8.34821 18.4895H12.4805V22.4751C12.4805 22.6865 12.5645 22.8893 12.714 23.0388C12.8634 23.1883 13.0662 23.2722 13.2776 23.2722C13.489 23.2722 13.6918 23.1883 13.8413 23.0388C13.9907 22.8893 14.0747 22.6865 14.0747 22.4751V18.4895H18.207L20.4947 25.1264C20.5637 25.3263 20.7092 25.4908 20.8993 25.5835C21.0895 25.6761 21.3087 25.6895 21.5087 25.6206C21.7087 25.5516 21.8731 25.4061 21.9658 25.216C22.0585 25.0258 22.0718 24.8066 22.0029 24.6066L19.8937 18.4895H22.8431C23.2659 18.4895 23.6714 18.3216 23.9704 18.0226C24.2693 17.7236 24.4373 17.3181 24.4373 16.8953V5.7356C24.4373 5.31278 24.2693 4.90728 23.9704 4.6083C23.6714 4.30932 23.2659 4.14136 22.8431 4.14136H14.9452L14.0317 1.49014Z" fill="#6B7CFE"/>
</g>
<defs>
<clipPath id="clip0_2_1555">
<rect width="25.5079" height="25.5079" fill="white" transform="translate(0.523438 0.952881)"/>
</clipPath>
</defs>
</svg>
