<svg width="23" height="23" viewBox="0 0 23 23" fill="none" xmlns="http://www.w3.org/2000/svg">
<path d="M11.8563 3.44202L12.7137 3.49017L13.5603 3.63401L14.3854 3.87173L15.1788 4.20034L15.9303 4.61572L16.6307 5.11263L17.271 5.68483L17.8432 6.32513L18.3401 7.02546L18.7554 7.77703L19.0841 8.57038L19.3218 9.39553L19.4656 10.2421L19.5138 11.0995L19.4656 11.9568L19.3218 12.8034L19.0841 13.6286L18.7554 14.4219L18.3401 15.1735L17.8432 15.8738L17.271 16.5141L16.6307 17.0863L15.9303 17.5832L15.1788 17.9986L14.3854 18.3272L13.5603 18.5649L12.7137 18.7088L11.8563 18.7569L10.9989 18.7088L10.1524 18.5649L9.32721 18.3272L8.53386 17.9986L7.7823 17.5832L7.08196 17.0863L6.44167 16.5141L5.86947 15.8738L5.37256 15.1735L4.95718 14.4219L4.62856 13.6286L4.39084 12.8034L4.247 11.9568L4.19885 11.0995L4.247 10.2421L4.39084 9.39553L4.62856 8.57038L4.95718 7.77703L5.37256 7.02546L5.86947 6.32513L6.44167 5.68483L7.08196 5.11263L7.7823 4.61572L8.53386 4.20034L9.32721 3.87173L10.1524 3.63401L10.9989 3.49017L11.8563 3.44202Z" fill="#C2CCDE" fill-opacity="0.25"/>
<path d="M11.8563 3.44202L11.9074 2.53185C11.8734 2.52994 11.8392 2.52994 11.8052 2.53185L11.8563 3.44202ZM12.7137 3.49017L12.8664 2.59144C12.8328 2.58573 12.7988 2.58191 12.7648 2.58L12.7137 3.49017ZM13.5603 3.63401L13.8126 2.75803C13.7798 2.74859 13.7466 2.741 13.713 2.73528L13.5603 3.63401ZM14.3854 3.87173L14.7343 3.02952C14.7028 3.01647 14.6705 3.00519 14.6378 2.99575L14.3854 3.87173ZM15.1788 4.20034L15.6197 3.40249C15.5899 3.38599 15.5591 3.37118 15.5276 3.35813L15.1788 4.20034ZM15.9303 4.61572L16.4578 3.87225C16.43 3.85252 16.4011 3.83436 16.3713 3.81786L15.9303 4.61572ZM16.6307 5.11263L17.2381 4.4329C17.2127 4.41018 17.186 4.3889 17.1582 4.36917L16.6307 5.11263ZM17.271 5.68483L17.9507 5.07739C17.928 5.05196 17.9038 5.02783 17.8784 5.0051L17.271 5.68483ZM17.8432 6.32513L18.5866 5.79761C18.5669 5.7698 18.5456 5.74311 18.5229 5.71768L17.8432 6.32513ZM18.3401 7.02546L19.1379 6.5845C19.1214 6.55465 19.1033 6.52576 19.0835 6.49794L18.3401 7.02546ZM18.7554 7.77703L19.5977 7.42817C19.5846 7.39667 19.5698 7.36592 19.5533 7.33607L18.7554 7.77703ZM19.0841 8.57038L19.96 8.31801C19.9506 8.28524 19.9393 8.25303 19.9263 8.22152L19.0841 8.57038ZM19.3218 9.39553L20.2205 9.24283C20.2148 9.20921 20.2072 9.17594 20.1978 9.14317L19.3218 9.39553ZM19.4656 10.2421L20.3758 10.191C20.3739 10.1569 20.3701 10.123 20.3643 10.0894L19.4656 10.2421ZM19.5138 11.0995L20.4239 11.1506C20.4258 11.1165 20.4258 11.0824 20.4239 11.0484L19.5138 11.0995ZM19.4656 11.9568L20.3643 12.1095C20.3701 12.0759 20.3739 12.042 20.3758 12.008L19.4656 11.9568ZM19.3218 12.8034L20.1978 13.0558C20.2072 13.023 20.2148 12.9897 20.2205 12.9561L19.3218 12.8034ZM19.0841 13.6286L19.9263 13.9774C19.9393 13.9459 19.9506 13.9137 19.96 13.8809L19.0841 13.6286ZM18.7554 14.4219L19.5533 14.8629C19.5698 14.833 19.5846 14.8023 19.5977 14.7708L18.7554 14.4219ZM18.3401 15.1735L19.0835 15.701C19.1033 15.6732 19.1214 15.6443 19.1379 15.6144L18.3401 15.1735ZM17.8432 15.8738L18.5229 16.4813C18.5456 16.4558 18.5669 16.4292 18.5866 16.4013L17.8432 15.8738ZM17.271 16.5141L17.8784 17.1938C17.9038 17.1711 17.928 17.147 17.9507 17.1216L17.271 16.5141ZM16.6307 17.0863L17.1582 17.8298C17.186 17.8101 17.2127 17.7888 17.2381 17.766L16.6307 17.0863ZM15.9303 17.5832L16.3713 18.3811C16.4011 18.3646 16.43 18.3464 16.4578 18.3267L15.9303 17.5832ZM15.1788 17.9986L15.5276 18.8408C15.5591 18.8278 15.5899 18.813 15.6197 18.7965L15.1788 17.9986ZM14.3854 18.3272L14.6378 19.2032C14.6705 19.1938 14.7028 19.1825 14.7343 19.1694L14.3854 18.3272ZM13.5603 18.5649L13.713 19.4637C13.7466 19.458 13.7798 19.4504 13.8126 19.4409L13.5603 18.5649ZM12.7137 18.7088L12.7648 19.619C12.7988 19.617 12.8328 19.6132 12.8664 19.6075L12.7137 18.7088ZM11.8563 18.7569L11.8052 19.6671C11.8392 19.669 11.8734 19.669 11.9074 19.6671L11.8563 18.7569ZM10.9989 18.7088L10.8462 19.6075C10.8799 19.6132 10.9138 19.617 10.9478 19.619L10.9989 18.7088ZM10.1524 18.5649L9.9 19.4409C9.93277 19.4504 9.96605 19.458 9.99967 19.4637L10.1524 18.5649ZM9.32721 18.3272L8.97836 19.1694C9.00986 19.1825 9.04208 19.1938 9.07485 19.2032L9.32721 18.3272ZM8.53386 17.9986L8.0929 18.7965C8.12275 18.813 8.1535 18.8278 8.18501 18.8408L8.53386 17.9986ZM7.7823 17.5832L7.25478 18.3267C7.28259 18.3464 7.31149 18.3646 7.34134 18.3811L7.7823 17.5832ZM7.08196 17.0863L6.47452 17.766C6.49995 17.7888 6.52663 17.8101 6.55445 17.8298L7.08196 17.0863ZM6.44167 16.5141L5.76194 17.1216C5.78467 17.147 5.8088 17.1711 5.83423 17.1938L6.44167 16.5141ZM5.86947 15.8738L5.126 16.4013C5.14574 16.4292 5.16702 16.4558 5.18974 16.4813L5.86947 15.8738ZM5.37256 15.1735L4.5747 15.6144C4.5912 15.6443 4.60935 15.6732 4.62909 15.701L5.37256 15.1735ZM4.95718 14.4219L4.11497 14.7708C4.12802 14.8023 4.14283 14.833 4.15932 14.8629L4.95718 14.4219ZM4.62856 13.6286L3.75259 13.8809C3.76203 13.9137 3.7733 13.9459 3.78635 13.9774L4.62856 13.6286ZM4.39084 12.8034L3.49212 12.9561C3.49783 12.9897 3.50543 13.023 3.51487 13.0558L4.39084 12.8034ZM4.247 11.9568L3.33683 12.008C3.33875 12.042 3.34257 12.0759 3.34828 12.1095L4.247 11.9568ZM4.19885 11.0995L3.28868 11.0484C3.28677 11.0824 3.28677 11.1165 3.28868 11.1506L4.19885 11.0995ZM4.247 10.2421L3.34828 10.0894C3.34257 10.123 3.33875 10.1569 3.33683 10.191L4.247 10.2421ZM4.39084 9.39553L3.51487 9.14317C3.50543 9.17594 3.49783 9.20921 3.49212 9.24283L4.39084 9.39553ZM4.62856 8.57038L3.78635 8.22152C3.7733 8.25303 3.76203 8.28524 3.75259 8.31801L4.62856 8.57038ZM4.95718 7.77703L4.15932 7.33607C4.14283 7.36592 4.12802 7.39667 4.11497 7.42817L4.95718 7.77703ZM5.37256 7.02546L4.62909 6.49794C4.60935 6.52576 4.5912 6.55465 4.5747 6.5845L5.37256 7.02546ZM5.86947 6.32513L5.18974 5.71768C5.16702 5.74311 5.14574 5.7698 5.126 5.79761L5.86947 6.32513ZM6.44167 5.68483L5.83423 5.0051C5.8088 5.02783 5.78467 5.05196 5.76194 5.07739L6.44167 5.68483ZM7.08196 5.11263L6.55445 4.36917C6.52663 4.3889 6.49995 4.41018 6.47452 4.4329L7.08196 5.11263ZM7.7823 4.61572L7.34134 3.81786C7.31149 3.83436 7.28259 3.85252 7.25478 3.87225L7.7823 4.61572ZM8.53386 4.20034L8.18501 3.35813C8.1535 3.37118 8.12275 3.38599 8.0929 3.40249L8.53386 4.20034ZM9.32721 3.87173L9.07485 2.99575C9.04208 3.00519 9.00986 3.01647 8.97836 3.02952L9.32721 3.87173ZM10.1524 3.63401L9.99967 2.73528C9.96605 2.741 9.93277 2.74859 9.9 2.75803L10.1524 3.63401ZM10.9989 3.49017L10.9478 2.58C10.9138 2.58191 10.8799 2.58573 10.8462 2.59144L10.9989 3.49017ZM11.8052 4.35218L12.6626 4.40033L12.7648 2.58L11.9074 2.53185L11.8052 4.35218ZM12.561 4.38889L13.4076 4.53273L13.713 2.73528L12.8664 2.59144L12.561 4.38889ZM13.3079 4.50998L14.133 4.7477L14.6378 2.99575L13.8126 2.75803L13.3079 4.50998ZM14.0366 4.71394L14.8299 5.04255L15.5276 3.35813L14.7343 3.02952L14.0366 4.71394ZM14.7378 4.9982L15.4894 5.41358L16.3713 3.81786L15.6197 3.40249L14.7378 4.9982ZM15.4028 5.35919L16.1031 5.8561L17.1582 4.36917L16.4578 3.87225L15.4028 5.35919ZM16.0232 5.79236L16.6635 6.36456L17.8784 5.0051L17.2381 4.4329L16.0232 5.79236ZM16.5912 6.29228L17.1634 6.93257L18.5229 5.71768L17.9507 5.07739L16.5912 6.29228ZM17.0997 6.85265L17.5966 7.55298L19.0835 6.49794L18.5866 5.79761L17.0997 6.85265ZM17.5422 7.46642L17.9576 8.21799L19.5533 7.33607L19.1379 6.5845L17.5422 7.46642ZM17.9132 8.12588L18.2418 8.91923L19.9263 8.22152L19.5977 7.42817L17.9132 8.12588ZM18.2081 8.82274L18.4458 9.64789L20.1978 9.14317L19.96 8.31801L18.2081 8.82274ZM18.4231 9.54823L18.5669 10.3948L20.3643 10.0894L20.2205 9.24283L18.4231 9.54823ZM18.5555 10.2932L18.6036 11.1506L20.4239 11.0484L20.3758 10.191L18.5555 10.2932ZM18.6036 11.0484L18.5555 11.9057L20.3758 12.008L20.4239 11.1506L18.6036 11.0484ZM18.5669 11.8041L18.4231 12.6507L20.2205 12.9561L20.3643 12.1095L18.5669 11.8041ZM18.4458 12.5511L18.2081 13.3762L19.96 13.8809L20.1978 13.0558L18.4458 12.5511ZM18.2418 13.2797L17.9132 14.0731L19.5977 14.7708L19.9263 13.9774L18.2418 13.2797ZM17.9576 13.981L17.5422 14.7325L19.1379 15.6144L19.5533 14.8629L17.9576 13.981ZM17.5966 14.646L17.0997 15.3463L18.5866 16.4013L19.0835 15.701L17.5966 14.646ZM17.1634 15.2664L16.5912 15.9067L17.9507 17.1216L18.5229 16.4813L17.1634 15.2664ZM16.6635 15.8344L16.0232 16.4066L17.2381 17.766L17.8784 17.1938L16.6635 15.8344ZM16.1031 16.3428L15.4028 16.8398L16.4578 18.3267L17.1582 17.8298L16.1031 16.3428ZM15.4894 16.7854L14.7378 17.2008L15.6197 18.7965L16.3713 18.3811L15.4894 16.7854ZM14.8299 17.1564L14.0366 17.485L14.7343 19.1694L15.5276 18.8408L14.8299 17.1564ZM14.133 17.4512L13.3079 17.689L13.8126 19.4409L14.6378 19.2032L14.133 17.4512ZM13.4076 17.6662L12.561 17.8101L12.8664 19.6075L13.713 19.4637L13.4076 17.6662ZM12.6626 17.7986L11.8052 17.8468L11.9074 19.6671L12.7648 19.619L12.6626 17.7986ZM11.9074 17.8468L11.0501 17.7986L10.9478 19.619L11.8052 19.6671L11.9074 17.8468ZM11.1516 17.8101L10.3051 17.6662L9.99967 19.4637L10.8462 19.6075L11.1516 17.8101ZM10.4047 17.689L9.57958 17.4512L9.07485 19.2032L9.9 19.4409L10.4047 17.689ZM9.67607 17.485L8.88272 17.1564L8.18501 18.8408L8.97836 19.1694L9.67607 17.485ZM8.97482 17.2008L8.22326 16.7854L7.34134 18.3811L8.0929 18.7965L8.97482 17.2008ZM8.30982 16.8398L7.60948 16.3428L6.55445 17.8298L7.25478 18.3267L8.30982 16.8398ZM7.68941 16.4066L7.04911 15.8344L5.83423 17.1938L6.47452 17.766L7.68941 16.4066ZM7.1214 15.9067L6.5492 15.2664L5.18974 16.4813L5.76194 17.1216L7.1214 15.9067ZM6.61294 15.3463L6.11602 14.646L4.62909 15.701L5.126 16.4013L6.61294 15.3463ZM6.17041 14.7325L5.75503 13.981L4.15932 14.8629L4.5747 15.6144L6.17041 14.7325ZM5.79939 14.0731L5.47077 13.2797L3.78635 13.9774L4.11497 14.7708L5.79939 14.0731ZM5.50454 13.3762L5.26682 12.5511L3.51487 13.0558L3.75259 13.8809L5.50454 13.3762ZM5.28956 12.6507L5.14572 11.8041L3.34828 12.1095L3.49212 12.9561L5.28956 12.6507ZM5.15717 11.9057L5.10902 11.0484L3.28868 11.1506L3.33683 12.008L5.15717 11.9057ZM5.10902 11.1506L5.15717 10.2932L3.33683 10.191L3.28868 11.0484L5.10902 11.1506ZM5.14572 10.3948L5.28956 9.54823L3.49212 9.24283L3.34828 10.0894L5.14572 10.3948ZM5.26682 9.64789L5.50454 8.82274L3.75259 8.31801L3.51487 9.14317L5.26682 9.64789ZM5.47077 8.91923L5.79939 8.12588L4.11497 7.42817L3.78635 8.22152L5.47077 8.91923ZM5.75503 8.21799L6.17041 7.46642L4.5747 6.5845L4.15932 7.33607L5.75503 8.21799ZM6.11602 7.55298L6.61294 6.85265L5.126 5.79761L4.62909 6.49794L6.11602 7.55298ZM6.5492 6.93257L7.1214 6.29228L5.76194 5.07739L5.18974 5.71768L6.5492 6.93257ZM7.04911 6.36456L7.68941 5.79236L6.47452 4.4329L5.83423 5.0051L7.04911 6.36456ZM7.60948 5.8561L8.30982 5.35919L7.25478 3.87225L6.55445 4.36917L7.60948 5.8561ZM8.22326 5.41358L8.97482 4.9982L8.0929 3.40249L7.34134 3.81786L8.22326 5.41358ZM8.88272 5.04255L9.67607 4.71394L8.97836 3.02952L8.18501 3.35813L8.88272 5.04255ZM9.57958 4.7477L10.4047 4.50998L9.9 2.75803L9.07485 2.99575L9.57958 4.7477ZM10.3051 4.53273L11.1516 4.38889L10.8462 2.59144L9.99967 2.73528L10.3051 4.53273ZM11.0501 4.40033L11.9074 4.35218L11.8052 2.53185L10.9478 2.58L11.0501 4.40033Z" fill="#D0D0D0"/>
<path d="M7.81723 11.1492L9.86841 13.2198C10.2227 13.5775 10.7972 13.5775 11.1515 13.2198L15.8954 8.43091" stroke="#D0D0D0" stroke-width="1.8232" stroke-linecap="round" stroke-linejoin="round"/>
</svg>
