<svg width="57" height="18" viewBox="0 0 57 18" fill="none" xmlns="http://www.w3.org/2000/svg">
<path d="M13.078 3.888L8.92 17H7.028L2.848 3.888C2.74533 3.55067 2.66467 3.316 2.606 3.184C2.54733 3.03733 2.48133 2.942 2.408 2.898C2.33467 2.854 2.21733 2.82467 2.056 2.81L0.846 2.656V2.04H6.962V2.656L5.752 2.81C5.51733 2.83933 5.39267 2.90533 5.378 3.008C5.36333 3.096 5.42933 3.38933 5.576 3.888L8.92 14.382L12.22 3.888C12.3813 3.38933 12.4473 3.096 12.418 3.008C12.4033 2.90533 12.2787 2.83933 12.044 2.81L10.834 2.656V2.04H15.058V2.656L13.848 2.81C13.7013 2.82467 13.5913 2.854 13.518 2.898C13.4447 2.942 13.3787 3.03733 13.32 3.184C13.2613 3.316 13.1807 3.55067 13.078 3.888ZM24.9173 11.192V11.632C24.9173 13.3187 24.4773 14.6753 23.5973 15.702C22.7319 16.714 21.4926 17.22 19.8793 17.22C18.2659 17.22 17.0193 16.714 16.1393 15.702C15.2739 14.6753 14.8413 13.3187 14.8413 11.632V11.192C14.8413 9.50533 15.2739 8.156 16.1393 7.144C17.0193 6.132 18.2659 5.626 19.8793 5.626C21.4926 5.626 22.7319 6.132 23.5973 7.144C24.4773 8.156 24.9173 9.50533 24.9173 11.192ZM22.2113 10.752C22.2113 9.18267 22.0133 8.068 21.6173 7.408C21.2213 6.73333 20.6419 6.396 19.8793 6.396C19.1313 6.396 18.5519 6.73333 18.1413 7.408C17.7453 8.068 17.5473 9.18267 17.5473 10.752V12.072C17.5473 13.6267 17.7453 14.7487 18.1413 15.438C18.5519 16.1127 19.1313 16.45 19.8793 16.45C20.6419 16.45 21.2213 16.1127 21.6173 15.438C22.0133 14.7487 22.2113 13.6267 22.2113 12.072V10.752ZM26.4028 1.336V0.72H30.6268V15.152C30.6268 15.6507 30.6488 15.9513 30.6928 16.054C30.7368 16.142 30.8761 16.2007 31.1108 16.23L32.3208 16.384V17H26.4028V16.384L27.6128 16.23C27.8474 16.2007 27.9868 16.142 28.0308 16.054C28.0748 15.9513 28.0968 15.6507 28.0968 15.152V2.568C28.0968 2.06933 28.0748 1.776 28.0308 1.688C27.9868 1.58533 27.8474 1.51933 27.6128 1.49L26.4028 1.336ZM43.096 14.382C42.832 15.4087 42.3406 16.142 41.622 16.582C40.9033 17.0073 40.0673 17.22 39.114 17.22C37.354 17.22 36.034 16.714 35.154 15.702C34.274 14.6753 33.834 13.3187 33.834 11.632V11.192C33.834 9.50533 34.2446 8.156 35.066 7.144C35.902 6.132 37.1046 5.626 38.674 5.626C39.554 5.626 40.3313 5.802 41.006 6.154C41.6953 6.49133 42.2306 6.98267 42.612 7.628C43.008 8.27333 43.206 9.058 43.206 9.982C43.206 10.202 43.1913 10.4367 43.162 10.686C43.1473 10.9353 43.1106 11.1847 43.052 11.434H36.54V12.072C36.54 13.6267 36.76 14.7487 37.2 15.438C37.64 16.1127 38.3513 16.45 39.334 16.45C39.9646 16.45 40.5 16.2667 40.94 15.9C41.38 15.5187 41.6293 14.8807 41.688 13.986L43.096 14.382ZM38.674 6.396C37.9553 6.396 37.42 6.726 37.068 7.386C36.716 8.046 36.54 9.13867 36.54 10.664H40.522C40.5806 10.3707 40.6173 10.0993 40.632 9.85C40.6613 9.586 40.676 9.344 40.676 9.124C40.676 8.18533 40.4926 7.496 40.126 7.056C39.7593 6.616 39.2753 6.396 38.674 6.396ZM48.8225 16.384V17H44.4225V16.384L45.6325 16.23C45.7792 16.2007 45.8892 16.1713 45.9625 16.142C46.0505 16.098 46.1532 16.0027 46.2705 15.856C46.3878 15.7093 46.5565 15.4747 46.7765 15.152L49.1305 11.72L46.7765 7.694C46.5858 7.35667 46.4392 7.122 46.3365 6.99C46.2338 6.84333 46.1385 6.748 46.0505 6.704C45.9625 6.66 45.8452 6.63067 45.6985 6.616L44.4885 6.462V5.846H50.5825V6.462L49.3725 6.616C49.1378 6.64533 49.0278 6.704 49.0425 6.792C49.0572 6.88 49.2112 7.18067 49.5045 7.694L50.9785 10.202L52.6725 7.694C53.0098 7.19533 53.1785 6.902 53.1785 6.814C53.1932 6.71133 53.0832 6.64533 52.8485 6.616L51.6385 6.462V5.846H56.0385V6.462L54.8285 6.616C54.6818 6.63067 54.5645 6.66 54.4765 6.704C54.4032 6.748 54.3078 6.84333 54.1905 6.99C54.0878 7.122 53.9192 7.35667 53.6845 7.694L51.4405 10.994L53.8605 15.152C54.0658 15.4893 54.2125 15.7313 54.3005 15.878C54.4032 16.01 54.4985 16.098 54.5865 16.142C54.6745 16.1713 54.7918 16.2007 54.9385 16.23L56.1485 16.384V17H50.0545V16.384L51.2645 16.23C51.4992 16.2007 51.6092 16.142 51.5945 16.054C51.5798 15.9513 51.4258 15.6507 51.1325 15.152L49.5925 12.49L47.7885 15.152C47.4512 15.6507 47.2752 15.9513 47.2605 16.054C47.2605 16.142 47.3778 16.2007 47.6125 16.23L48.8225 16.384Z" fill="white"/>
</svg>
