<svg width="25" height="24" viewBox="0 0 25 24" fill="none" xmlns="http://www.w3.org/2000/svg">
<path d="M3.625 6.4V6.4C3.625 5.07452 4.69952 4 6.025 4L19.7393 4C19.9121 4 19.9985 4 20.0688 4.02112C20.2297 4.06944 20.3556 4.19531 20.4039 4.3562C20.425 4.42655 20.425 4.51294 20.425 4.68571V4.68571C20.425 5.72238 20.425 6.24071 20.2983 6.6628C20.0084 7.62813 19.2531 8.38338 18.2878 8.67325C17.8657 8.8 17.3474 8.8 16.3107 8.8H16.225M3.625 6.4V6.4C3.625 7.72548 4.69952 8.8 6.025 8.8L19.625 8.8C20.5678 8.8 21.0392 8.8 21.3321 9.09289C21.625 9.38579 21.625 9.85719 21.625 10.8L21.625 13.6M3.625 6.4L3.625 18C3.625 19.8856 3.625 20.8284 4.21079 21.4142C4.79657 22 5.73938 22 7.625 22L19.625 22C20.5678 22 21.0392 22 21.3321 21.7071C21.625 21.4142 21.625 20.9428 21.625 20V18.4M21.625 18.4H18.825C17.8822 18.4 17.4108 18.4 17.1179 18.1071C16.825 17.8142 16.825 17.3428 16.825 16.4V15.6C16.825 14.6572 16.825 14.1858 17.1179 13.8929C17.4108 13.6 17.8822 13.6 18.825 13.6H21.625M21.625 18.4V13.6" stroke="#908989" stroke-width="1.3"/>
</svg>
