<svg width="20" height="20" viewBox="0 0 20 20" fill="none" xmlns="http://www.w3.org/2000/svg">
<path d="M15.9084 10.4917C15.7751 10.4917 15.6418 10.45 15.5251 10.3583C12.1668 7.76667 7.82511 7.76667 4.46677 10.3583C4.19177 10.5667 3.80011 10.5167 3.59177 10.25C3.38344 9.975 3.43344 9.58333 3.70011 9.375C7.52511 6.41667 12.4668 6.41667 16.2834 9.375C16.5584 9.58333 16.6084 9.975 16.3918 10.25C16.2834 10.4083 16.1001 10.4917 15.9084 10.4917Z" fill="#101010"/>
<path d="M18.3333 7.59167C18.2 7.59167 18.0667 7.55 17.95 7.45833C13.1167 3.725 6.87501 3.725 2.05001 7.45833C1.77501 7.66667 1.38334 7.61667 1.17501 7.35C0.958339 7.08333 1.00834 6.68333 1.28334 6.475C6.57501 2.38333 13.4167 2.38333 18.7167 6.475C18.9917 6.68333 19.0417 7.075 18.825 7.35C18.7083 7.50833 18.5167 7.59167 18.3333 7.59167Z" fill="#101010"/>
<path d="M14.3415 13.5333C14.2081 13.5333 14.0748 13.4917 13.9581 13.4C11.5581 11.5417 8.44981 11.5417 6.04148 13.4C5.76648 13.6083 5.37481 13.5583 5.16648 13.2917C4.95815 13.0167 5.00815 12.625 5.27481 12.4167C8.14148 10.2 11.8498 10.2 14.7165 12.4167C14.9915 12.625 15.0415 13.0167 14.8248 13.2917C14.7081 13.45 14.5248 13.5333 14.3415 13.5333Z" fill="#101010"/>
<path d="M12.1668 16.5833C12.0335 16.5833 11.9001 16.5416 11.7835 16.45C10.7001 15.6083 9.29181 15.6083 8.20847 16.45C7.93347 16.6583 7.54181 16.6083 7.33347 16.3417C7.12514 16.0667 7.17514 15.675 7.44181 15.4666C8.99181 14.2667 10.9918 14.2667 12.5418 15.4666C12.8168 15.675 12.8668 16.0667 12.6501 16.3417C12.5418 16.4917 12.3585 16.5833 12.1668 16.5833Z" fill="#101010"/>
</svg>
